<?xml version="1.0" encoding="UTF-8" standalone="no"?>
<svg
   xmlns:dc="http://purl.org/dc/elements/1.1/"
   xmlns:cc="http://creativecommons.org/ns#"
   xmlns:rdf="http://www.w3.org/1999/02/22-rdf-syntax-ns#"
   xmlns:svg="http://www.w3.org/2000/svg"
   xmlns="http://www.w3.org/2000/svg"
   xmlns:sodipodi="http://sodipodi.sourceforge.net/DTD/sodipodi-0.dtd"
   xmlns:inkscape="http://www.inkscape.org/namespaces/inkscape"
   width="135.12993mm"
   height="133.40315mm"
   viewBox="0 0 135.12993 133.40315"
   version="1.1"
   id="svg8"
   inkscape:version="1.0.2 (e86c870879, 2021-01-15)"
   sodipodi:docname="docs_cloud_ok.svg">
  <defs
     id="defs2" />
  <sodipodi:namedview
     id="base"
     pagecolor="#ffffff"
     bordercolor="#666666"
     borderopacity="1.0"
     inkscape:pageopacity="0.0"
     inkscape:pageshadow="2"
     inkscape:zoom="0.35"
     inkscape:cx="266.77967"
     inkscape:cy="344.58797"
     inkscape:document-units="mm"
     inkscape:current-layer="layer1"
     inkscape:document-rotation="0"
     showgrid="false"
     inkscape:window-width="1920"
     inkscape:window-height="1054"
     inkscape:window-x="1920"
     inkscape:window-y="0"
     inkscape:window-maximized="1" />
  <metadata
     id="metadata5">
    <rdf:RDF>
      <cc:Work
         rdf:about="">
        <dc:format>image/svg+xml</dc:format>
        <dc:type
           rdf:resource="http://purl.org/dc/dcmitype/StillImage" />
        <dc:title></dc:title>
      </cc:Work>
    </rdf:RDF>
  </metadata>
  <g
     inkscape:label="Livello 1"
     inkscape:groupmode="layer"
     id="layer1"
     transform="translate(-35.247879,-56.994433)">
    <path
       style="display:inline;fill:#50b2ff;fill-opacity:1;stroke-width:0.264583"
       d="m 50.087164,144.03116 c -7.157239,-2.467 -12.449961,-8.31818 -14.299978,-15.80885 -0.314854,-1.27482 -0.445992,-2.88841 -0.438153,-5.39123 0.0097,-3.09605 0.106352,-3.88909 0.725565,-5.95312 1.198409,-3.99469 3.653324,-7.98754 6.432198,-10.46178 2.931403,-2.61005 7.492682,-4.93821 10.670336,-5.44634 0.580197,-0.0928 1.114779,-0.26557 1.187963,-0.38398 0.07319,-0.11842 0.256971,-1.561297 0.408416,-3.206397 1.784345,-19.383032 15.858687,-35.364562 34.676242,-39.375157 9.975442,-2.126069 20.023607,-0.844824 29.196587,3.722865 9.0911,4.526914 16.73764,12.699954 20.72478,22.151753 0.53533,1.26905 1.06915,2.456193 1.18626,2.638094 0.13014,0.202203 0.81028,0.330729 1.75014,0.330729 2.17307,0 5.64734,0.652323 8.32514,1.563116 9.87266,3.357947 17.38071,12.012737 19.3359,22.289177 0.46437,2.44079 0.55227,7.71033 0.16701,10.01437 -1.60973,9.62699 -8.63238,18.89701 -17.36357,23.0459 -39.70443,-0.0301 -66.969631,0.25005 -102.684836,0.27085 z"
       id="path843"
       sodipodi:nodetypes="cssssssssssssssscc" />
    <path
       style="display:inline;fill:#005ca6;fill-opacity:1;stroke-width:0.264583"
       d="m 42.235242,139.22721 c -8.693912,-8.36275 -9.352709,-21.6116 -1.539584,-30.96214 2.676062,-3.20264 7.446714,-6.13784 11.547173,-7.10452 1.149601,-0.27102 2.081387,-0.6433 2.202408,-0.87994 0.115374,-0.22559 0.276426,-1.481729 0.357894,-2.791416 0.66748,-10.730283 6.364343,-22.124141 14.710073,-29.420479 17.429477,-15.237902 43.247204,-14.690281 59.859464,1.269682 2.74907,2.641119 2.73639,2.645629 -0.82724,0.294209 -8.16377,-5.386776 -17.30727,-7.768024 -27.45052,-7.14895 -21.044472,1.284409 -38.744004,18.306473 -40.812556,39.250414 -0.459853,4.65599 -0.244438,4.2325 -2.400607,4.71942 -3.784245,0.85459 -8.299013,3.44474 -11.01028,6.31667 -4.112713,4.35641 -6.188049,9.61356 -6.188049,15.67528 0,4.21387 1.038336,8.21006 2.933542,11.29016 0.432347,0.70265 0.716078,1.27755 0.630515,1.27755 -0.08557,0 -0.991071,-0.80367 -2.012233,-1.78594 z"
       id="path839"
       sodipodi:nodetypes="ssssssssssssssss" />
    <path
       style="display:inline;fill:#005360;fill-opacity:1;stroke-width:0.264583"
       d="m 100.87101,162.0268 v -18.05782 h 1.98438 1.98437 v 18.05782 18.05781 h -1.98437 -1.98438 z m -24.488652,13.55989 v -1.98437 h 2.948231 c 2.582016,0 3.034826,-0.0681 3.645371,-0.54837 l 0.69714,-0.54837 v -14.2683 -14.2683 h 1.984375 1.984375 l -0.0016,14.22136 c -0.0011,9.47207 -0.09816,14.57479 -0.291002,15.27968 -0.407517,1.48963 -2.420515,3.39272 -4.012719,3.79365 -0.671327,0.16907 -2.510721,0.3074 -4.087434,0.3074 h -2.86675 z m 45.625162,1.57156 c -1.48712,-0.45798 -3.24201,-2.24853 -3.65245,-3.72667 -0.18495,-0.66607 -0.2837,-5.95348 -0.28467,-15.24124 l -0.002,-14.22136 h 1.98437 1.98438 v 14.24138 14.24138 l 0.61236,0.57529 c 0.55503,0.52142 0.89566,0.57529 3.63802,0.57529 h 3.02566 v 1.98437 1.98438 l -3.04271,-0.0184 c -1.82776,-0.0111 -3.53016,-0.16855 -4.26349,-0.39439 z M 59.463726,160.24086 v -1.98438 h 3.108853 c 4.466739,0 4.167188,0.55156 4.167188,-7.67291 v -6.61459 h 1.984375 1.984375 l -0.0026,6.81302 c -0.0024,6.59535 -0.02244,6.85529 -0.623956,8.13594 -0.730703,1.55568 -1.217068,2.03168 -2.817799,2.75777 -0.986624,0.44753 -1.741546,0.53888 -4.49316,0.54371 l -3.30723,0.006 z m 78.814864,1.3488 c -1.43632,-0.66878 -2.48066,-1.82941 -2.97521,-3.30651 -0.19353,-0.57805 -0.30112,-3.29579 -0.30112,-7.60677 v -6.7074 h 1.98438 1.98437 v 6.61459 c 0,8.22447 -0.29955,7.67291 4.16719,7.67291 h 3.10885 v 1.98438 1.98437 l -3.30729,-0.003 c -2.9259,-0.002 -3.46342,-0.0753 -4.66117,-0.63298 z"
       id="path837" />
    <circle
       style="display:inline;fill:#ff6a29;fill-opacity:1;stroke:#ffffff;stroke-width:0;stroke-linejoin:round"
       id="path847"
       sodipodi:type="arc"
       sodipodi:cx="150.90904"
       sodipodi:cy="160.11011"
       sodipodi:rx="5.2498598"
       sodipodi:ry="5.2370324"
       sodipodi:start="0"
       sodipodi:end="6.2684198"
       sodipodi:open="true"
       sodipodi:arc-type="arc"
       d="m 156.1589,160.11011 a 5.2498598,5.2370324 0 0 1 -5.23048,5.23699 5.2498598,5.2370324 0 0 1 -5.26909,-5.19833 5.2498598,5.2370324 0 0 1 5.19158,-5.27537 5.2498598,5.2370324 0 0 1 5.30742,5.15938" />
    <circle
       style="display:inline;fill:#ff6a29;fill-opacity:1;stroke:#ffffff;stroke-width:0;stroke-linejoin:round"
       id="path847-3"
       sodipodi:type="arc"
       sodipodi:cx="134.22743"
       sodipodi:cy="175.13339"
       sodipodi:rx="5.2498598"
       sodipodi:ry="5.2370324"
       sodipodi:start="0"
       sodipodi:end="6.2684198"
       sodipodi:open="true"
       sodipodi:arc-type="arc"
       d="m 139.47729,175.13339 a 5.2498598,5.2370324 0 0 1 -5.23048,5.237 5.2498598,5.2370324 0 0 1 -5.26909,-5.19833 5.2498598,5.2370324 0 0 1 5.19158,-5.27538 5.2498598,5.2370324 0 0 1 5.30742,5.15939" />
    <circle
       style="display:inline;fill:#ff6a29;fill-opacity:1;stroke:#ffffff;stroke-width:0;stroke-linejoin:round"
       id="path847-6"
       sodipodi:type="arc"
       sodipodi:cx="102.60669"
       sodipodi:cy="184.77248"
       sodipodi:rx="5.2498598"
       sodipodi:ry="5.2370324"
       sodipodi:start="0"
       sodipodi:end="6.2684198"
       sodipodi:open="true"
       sodipodi:arc-type="arc"
       d="m 107.85655,184.77248 a 5.2498598,5.2370324 0 0 1 -5.23048,5.23699 5.2498598,5.2370324 0 0 1 -5.269097,-5.19833 5.2498598,5.2370324 0 0 1 5.191577,-5.27538 5.2498598,5.2370324 0 0 1 5.30743,5.15939" />
    <circle
       style="display:inline;fill:#ff6a29;fill-opacity:1;stroke:#ffffff;stroke-width:0;stroke-linejoin:round"
       id="path847-7"
       sodipodi:type="arc"
       sodipodi:cx="71.621674"
       sodipodi:cy="175.32404"
       sodipodi:rx="5.2498598"
       sodipodi:ry="5.2370324"
       sodipodi:start="0"
       sodipodi:end="6.2684198"
       sodipodi:open="true"
       sodipodi:arc-type="arc"
       d="m 76.871533,175.32404 a 5.2498598,5.2370324 0 0 1 -5.23048,5.23699 5.2498598,5.2370324 0 0 1 -5.269096,-5.19833 5.2498598,5.2370324 0 0 1 5.19158,-5.27538 5.2498598,5.2370324 0 0 1 5.307424,5.15939" />
    <circle
       style="display:inline;fill:#ff6a29;fill-opacity:1;stroke:#ffffff;stroke-width:0;stroke-linejoin:round"
       id="path847-5"
       sodipodi:type="arc"
       sodipodi:cx="54.802429"
       sodipodi:cy="160.05728"
       sodipodi:rx="5.2498598"
       sodipodi:ry="5.2370324"
       sodipodi:start="0"
       sodipodi:end="6.2684198"
       sodipodi:open="true"
       sodipodi:arc-type="arc"
       d="m 60.052289,160.05728 a 5.2498598,5.2370324 0 0 1 -5.230481,5.237 5.2498598,5.2370324 0 0 1 -5.269096,-5.19834 5.2498598,5.2370324 0 0 1 5.191581,-5.27537 5.2498598,5.2370324 0 0 1 5.307424,5.15939" />
    <path
       style="display:inline;fill:#ffb036;fill-opacity:1;stroke:#ffffff;stroke-width:0;stroke-linejoin:round"
       d="m 53.02622,155.10496 c -0.221069,5.44919 2.973718,6.56231 6.515684,7.23471 -1.666606,3.29913 -6.433291,4.71465 -9.19088,1.50202 -3.317371,-4.00811 0.545082,-8.00359 2.675196,-8.73673 z"
       id="path903"
       sodipodi:nodetypes="cccc" />
    <path
       style="display:inline;fill:#ffb036;fill-opacity:1;stroke:#ffffff;stroke-width:0;stroke-linejoin:round"
       d="m 69.866674,170.33636 c -0.221068,5.44919 2.973718,6.5623 6.515684,7.23471 -1.666605,3.29913 -6.433291,4.71465 -9.190881,1.50202 -3.31737,-4.00811 0.545084,-8.00359 2.675197,-8.73673 z"
       id="path903-3"
       sodipodi:nodetypes="cccc" />
    <path
       style="display:inline;fill:#ffb036;fill-opacity:1;stroke:#ffffff;stroke-width:0;stroke-linejoin:round"
       d="m 100.82443,179.851 c -0.22107,5.4492 2.97372,6.56231 6.51568,7.23472 -1.6666,3.29913 -6.43329,4.71465 -9.190875,1.50202 -3.317367,-4.00812 0.54509,-8.00359 2.675195,-8.73674 z"
       id="path903-5"
       sodipodi:nodetypes="cccc" />
    <path
       style="display:inline;fill:#ffb036;fill-opacity:1;stroke:#ffffff;stroke-width:0;stroke-linejoin:round"
       d="m 132.60722,170.06976 c -0.22106,5.4492 2.97372,6.56231 6.51569,7.23472 -1.66661,3.29913 -6.43329,4.71465 -9.19088,1.50202 -3.31737,-4.00812 0.54508,-8.00359 2.67519,-8.73674 z"
       id="path903-6"
       sodipodi:nodetypes="cccc" />
    <path
       style="display:inline;fill:#ffb036;fill-opacity:1;stroke:#ffffff;stroke-width:0;stroke-linejoin:round"
       d="m 149.14743,155.12124 c -0.22107,5.4492 2.97372,6.56231 6.51568,7.23471 -1.6666,3.29914 -6.43329,4.71465 -9.19088,1.50202 -3.31737,-4.00811 0.54509,-8.00358 2.6752,-8.73673 z"
       id="path903-2"
       sodipodi:nodetypes="cccc" />
  </g>
</svg>
