<?xml version="1.0" encoding="UTF-8" standalone="no"?>
<svg
   xmlns:dc="http://purl.org/dc/elements/1.1/"
   xmlns:cc="http://creativecommons.org/ns#"
   xmlns:rdf="http://www.w3.org/1999/02/22-rdf-syntax-ns#"
   xmlns:svg="http://www.w3.org/2000/svg"
   xmlns="http://www.w3.org/2000/svg"
   xmlns:sodipodi="http://sodipodi.sourceforge.net/DTD/sodipodi-0.dtd"
   xmlns:inkscape="http://www.inkscape.org/namespaces/inkscape"
   version="1.1"
   id="svg2"
   width="465.04059"
   height="336.51987"
   viewBox="0 0 465.04059 336.51987"
   sodipodi:docname="docs_config_ok.svg"
   inkscape:version="1.0.2 (e86c870879, 2021-01-15)"
   inkscape:export-filename="/home/marafed/Desktop/parrot OS/graphics/website/docs_config.png"
   inkscape:export-xdpi="66"
   inkscape:export-ydpi="66">
  <metadata
     id="metadata8">
    <rdf:RDF>
      <cc:Work
         rdf:about="">
        <dc:format>image/svg+xml</dc:format>
        <dc:type
           rdf:resource="http://purl.org/dc/dcmitype/StillImage" />
        <dc:title></dc:title>
      </cc:Work>
    </rdf:RDF>
  </metadata>
  <defs
     id="defs6" />
  <sodipodi:namedview
     pagecolor="#ffffff"
     bordercolor="#666666"
     borderopacity="1"
     objecttolerance="10"
     gridtolerance="10"
     guidetolerance="10"
     inkscape:pageopacity="0"
     inkscape:pageshadow="2"
     inkscape:window-width="1920"
     inkscape:window-height="1054"
     id="namedview4"
     showgrid="false"
     inkscape:zoom="1.6386719"
     inkscape:cx="167.28721"
     inkscape:cy="135.1002"
     inkscape:window-x="1920"
     inkscape:window-y="0"
     inkscape:window-maximized="1"
     inkscape:current-layer="g10"
     inkscape:document-rotation="0" />
  <g
     inkscape:groupmode="layer"
     inkscape:label="Image"
     id="g10"
     transform="translate(-21.019028,-92.671043)">
    <path
       style="fill:#ffb036;fill-opacity:1"
       d="m 41.83533,427.13741 c -7.4801,-2.87838 -15.0468,-10.54673 -17.8807,-18.12109 l -2.1538,-5.75653 V 261.33482 119.40985 l 2.1538,-5.75653 c 2.9104,-7.77891 10.3961,-15.25809 18.1897,-18.17405 l 5.7815,-2.16314 207.1875,0.25935 207.1875,0.25934 5,2.47615 c 6.3748,3.15699 12.3669,9.14903 15.5239,15.52385 l 2.4761,5 v 144 144 l -2.6198,5.58648 c -3.3301,7.101 -8.6927,12.46365 -15.7937,15.7937 l -5.5865,2.61982 -207,0.20286 -207,0.20286 z m 315.9655,-53.80259 v -8 h -28 -28 v 8 8 h 28 28 z m 88,0 v -8 h -28 -28 v 8 8 h 28 28 z m -120,-80 v -8 h -12 -12 v 8 8 h 12 12 z m 120,0 v -8 h -44 -44 v 8 8 h 44 44 z m -72,-80 v -8 h -36 -36 v 8 8 h 36 36 z m 72,0 v -8 h -20 -20 v 8 8 h 20 20 z m -368,-88 v -8 h -8 -8 v 8 8 h 8 8 z m 32,0 v -8 h -8 -8 v 8 8 h 8 8 z m 32,0 v -8 h -8 -8 v 8 8 h 8 8 z m 304,0 v -8 h -96 -96 v 8 8 h 96 96 z"
       id="path847" />
    <path
       style="fill:#ff6a29;fill-opacity:1"
       d="m 46.23893,428.40435 c -4.7772,-1.15454 -13.3494,-6.17538 -16.0762,-9.41604 -1.36,-1.61623 -3.6852,-5.23695 -5.1673,-8.04605 l -2.6946,-5.10744 v -144.5 -144.5 l 2.4476,-4.97392 c 3.1219,-6.34409 9.2344,-12.45663 15.5785,-15.57848 l 4.9739,-2.4476 h 207.5 c 202.4871,0 207.6207,0.0466 212.4971,1.92707 6.5459,2.52436 14.6774,10.29677 17.6505,16.87114 l 2.3524,5.20179 v 142.5 c 0,163.54091 0.8725,148.79244 -9.4101,159.06423 -10.4759,10.46485 13.7569,9.41367 -221.0899,9.59054 -113.025,0.0851 -206.8779,-0.17823 -208.5619,-0.58524 z m 107.2615,-38.83988 6.0231,-7.77036 7.3887,0.602 c 4.0637,0.3311 7.7688,0.39982 8.2335,0.15271 0.4647,-0.24711 3.5703,-0.44929 6.9013,-0.44929 12.07558,0.0511 4.89329,0.14234 14.8769,0.0695 l 7.2321,-0.33419 3.8244,4.8423 c 2.1034,2.66326 3.5247,5.32723 3.1584,5.91993 -0.7528,1.21792 -0.8887,1.2629 9.912,-3.27988 4.2625,-1.7928 7.7342,-3.75975 7.7148,-4.371 -0.019,-0.61124 -0.6145,-5.20736 -1.3225,-10.2136 l -1.2874,-9.10225 3.2381,-2.21876 c 3.341,-2.2893 12.8861,-11.9705 15.4533,-15.67365 1.3721,-1.97917 1.8717,-2.03998 8.898,-1.08295 5.24314,0.56425 7.40201,0.86309 10.53434,1.0022 2.6273,0.52545 3.20036,-1.5068 8.30006,-13.99342 2.8817,-7.05591 5.2354,-13.09362 5.2304,-13.41715 -0.01,-0.32352 -3.5057,-3.29862 -7.7794,-6.61134 l -7.7704,-6.02311 0.5304,-7.13866 c 0.2917,-3.92626 0.2917,-10.35106 0,-14.27732 l -0.5304,-7.13866 7.7704,-6.02311 c 4.2737,-3.31272 7.7744,-6.28782 7.7794,-6.61134 0,-0.32353 -2.3487,-6.36124 -5.2304,-13.41715 -5.0997,-12.48662 -5.97203,-13.96094 -8.59933,-13.43549 -4.40138,-0.75507 -6.7333,-0.0245 -10.23507,0.44427 -7.0263,0.95703 -7.5259,0.89622 -8.898,-1.08295 -2.5672,-3.70315 -12.1123,-13.38435 -15.4533,-15.67365 l -3.2381,-2.21876 1.2874,-9.10225 c 0.708,-5.00624 1.3032,-9.60236 1.3225,-10.2136 0.019,-0.61125 -3.4523,-2.5782 -7.7148,-4.371 -10.8035,-4.54395 -10.665,-4.49814 -9.9109,-3.27795 0.367,0.59376 -1.0314,3.22399 -3.1074,5.84495 l -3.7747,4.76537 -6.973,-0.25279 c -3.8351,-0.13903 -7.0584,-0.33829 -7.1629,-0.4428 -4.28356,-0.14561 -3.983,0.006 -7.97793,0.003 -3.4364,0.0784 -6.45667,0.52873 -6.59387,0.14474 -0.1371,-0.38399 -3.7861,-0.35798 -8.1089,0.0578 l -7.8596,0.75597 -6.0522,-7.8078 c -3.46383,-4.11946 -3.8299,-2.9182 -5.5158,-1.98413 -0.942,0.4698 -4.3189,1.88648 -7.5041,3.14818 l -5.7914,2.29398 0.6296,4.61708 c 0.3463,2.53939 0.9884,7.08577 1.427,10.10305 0.7211,4.96124 0.5931,5.62635 -1.3383,6.95368 -3.6936,2.53848 -13.3984,12.09047 -15.7071,15.45983 l -2.2136,3.23051 c -15.01031,-0.1806 -18.8976,-3.83215 -22.3815,0.66823 0,0.81296 -2.1884,6.76275 -4.8631,13.22174 -4.8344,11.67452 -4.851,11.75316 -2.8243,13.36184 1.1212,0.89002 4.7076,3.67599 7.9695,6.19105 l 5.931,4.57284 -0.5333,7.17716 c -0.2933,3.94744 -0.2933,10.40688 0,14.35432 l 0.5333,7.17716 -5.931,4.57284 c -3.2619,2.51506 -6.8483,5.30103 -7.9695,6.19105 -2.0267,1.60868 -2.0101,1.68732 2.8243,13.36184 2.6747,6.45899 4.8631,12.39122 4.8631,13.18272 4.44281,1.14902 7.20665,2.00006 9.2644,2.64852 0.4962,-0.15959 3.6506,-0.66166 7.0097,-1.11572 l 6.1074,-0.82556 2.2136,3.23051 c 2.3087,3.36936 12.0135,12.92135 15.7071,15.45983 1.9314,1.32733 2.0594,1.99244 1.3383,6.95368 -0.4386,3.01728 -1.0807,7.56366 -1.427,10.10305 l -0.6296,4.61708 5.7914,2.29398 c 11.00883,4.3441 10.96582,4.5965 12.9909,1.20151 z m 13.5267,-57.34175 c -15.8823,-2.64502 -29.519,-16.55789 -32.1319,-32.7825 -4.1473,-25.75252 19.0498,-49.23217 44.5408,-45.08339 3.7412,0.60888 6.2734,0.56211 7.5855,-0.1401 2.7686,-1.4817 13.7971,0.57549 20.389,3.80326 2.8759,1.40815 7.4488,4.76865 10.1621,7.46776 22.9538,22.8338 10.0825,61.67845 -22.1432,66.82653 -4.4427,0.70972 -7.2937,0.73493 -8.5261,0.0754 -1.2096,-0.64735 -3.8884,-0.65728 -7.7269,-0.0287 -3.2316,0.52922 -6.1006,0.91222 -6.3756,0.85111 -0.275,-0.0611 -2.8732,-0.50635 -5.7737,-0.98941 z m 20.2737,-76.85727 c 205.59473,-114.91511 102.79736,-57.45756 0,0 z m 202.5,133.96937 v -8 h 28 28 v -8 -8 h -28 -28 v -8 -8 h -8 -8 v 24 24 h 8 8 z m -32,-16 v -8 h -28 -28 v 8 8 h 28 28 z m 0,-64 v -8 h 44 44 v -8 -8 h -44 -44 v -8 -8 h -8 -8 v 24 24 h 8 8 z m -32,-16 v -8 h -12 -12 v 8 8 h 12 12 z m 79.9996,-64 v -8 h 20 20 v -8 -8 h -20 -20 v -8 -8 h -8 -8 v 24 24 h 8 8 z m -32,-16 v -8 h -36 -36 v 8 8 h 36 36 z m -296,-88 v -8 h -8 -8 v 8 8 h 8 8 z m 32,0 v -8 h -8 -8 v 8 8 h 8 8 z m 32,0 v -8 h -8 -8 v 8 8 h 8 8 z m 304,0 v -8 h -96 -96 v 8 8 h 96 96 z"
       id="path845"
       sodipodi:nodetypes="ssscccsscscccssssscsscccscscccssccscscsscscscccscccssccscccscccscsccsccssccsscccsccscsssscccscsssssssssscccscccccccccccccccsccccccccccccccccccccccccccccccccccccccccccccccccccccccccccccccccccccccccccccccccccccccccccccccccc" />
    <path
       style="fill:#3ab4ff;fill-opacity:1"
       d="m 45.300832,427.94448 c -9.5583,-3.04316 -16.3156,-8.85726 -20.3893,-17.54308 l -2.6107,-5.56658 v -144 -144 l 2.4762,-5 c 3.157,-6.37482 9.149,-12.36686 15.5238,-15.52386 l 5,-2.47614 h 207.999998 208 l 4.6224,2.13733 c 9.9371,4.59473 16.8755,13.37785 18.851,23.86267 1.6984,9.01475 0.9646,281.59102 -0.7718,286.67731 -3.1508,9.22933 -11.7716,17.85338 -21.0242,21.03219 -5.4372,1.86797 -411.844108,2.25733 -417.677398,0.40016 z m 108.124488,-37.9733 5.6964,-7.36363 h 14.6791 14.6792 l 5.6964,7.36363 c 3.1331,4.05 6.2428,7.36303 6.9104,7.36228 1.283,-10e-4 26.3492,-10.30045 27.2416,-11.19281 0.2869,-0.28697 0.001,-4.75734 -0.635,-9.93416 l -1.1567,-9.41239 10.3617,-10.36172 10.3617,-10.36172 9.41241,1.15671 c 5.1768,0.6362 9.6472,0.92193 9.9342,0.63496 0.8923,-0.89237 11.1914,-25.95851 11.1928,-27.24151 7e-4,-0.66769 -3.3193,-3.78283 -7.3779,-6.92252 l -7.3793,-5.70854 0.1293,-14.71228 0.1292,-14.71229 7.25,-5.6723 c 3.9875,-3.11977 7.2494,-6.2091 7.2487,-6.86519 -10e-4,-1.26849 -10.3094,-26.33699 -11.1928,-27.22039 -0.287,-0.28697 -4.7574,-0.001 -9.9342,0.63496 l -9.41241,1.15671 -10.3617,-10.36172 -10.3617,-10.36172 1.1567,-9.41239 c 0.6362,-5.17682 0.9219,-9.64719 0.635,-9.93416 -0.8924,-0.89236 -25.9586,-11.19138 -27.2416,-11.19281 -0.6676,-7.5e-4 -3.7828,3.31932 -6.9225,7.37792 l -5.7085,7.37929 -14.7123,-0.12929 -14.7123,-0.12928 -5.6723,-7.25 c -3.1198,-3.9875 -6.2091,-7.24939 -6.8652,-7.24864 -1.2685,10e-4 -26.337,10.30941 -27.2204,11.19281 -0.2869,0.28697 0,4.75734 0.635,9.93416 l 1.1567,9.41239 -10.3617,10.36172 -10.3617,10.36172 -9.340398,-1.14786 c -5.1371,-0.63132 -9.6927,-0.93005 -10.1234,-0.66384 -0.4308,0.26621 -1.5958,3.08581 -2.5889,6.26578 -0.9931,3.17997 -3.3192,9.33241 -5.169,13.6721 l -3.3633,7.89034 2.1662,1.51733 c 1.1915,0.83453 4.464,3.55781 7.2722,6.05174 l 5.1058,4.53442 0.1003,14.63614 0.1003,14.63615 -6.2167,5.28016 c -3.4191,2.90409 -6.7423,5.60509 -7.3849,6.00221 -0.8348,0.51597 -0.2048,2.98223 2.2076,8.6416 1.8567,4.35576 4.1884,10.52136 5.1815,13.70133 0.9931,3.17997 2.1581,5.99957 2.5889,6.26578 0.4307,0.26621 4.9863,-0.0325 10.1234,-0.66384 l 9.340398,-1.14786 10.3617,10.36172 10.3617,10.36172 -1.1567,9.41239 c -0.6362,5.17682 -0.9175,9.65164 -0.6251,9.94405 1.0262,1.02621 25.0364,10.97932 26.7316,11.08123 1.0162,0.0611 4.0334,-2.89517 7.4105,-7.26059 z m 8.6616,-59.0308 c -10.391,-3.3863 -19.4314,-11.41674 -24.1256,-21.43041 -2.3524,-5.01803 -2.6605,-6.89338 -2.6605,-16.19618 0,-9.84321 0.2089,-10.9452 3.2413,-17.105 3.9036,-7.92932 11.0561,-14.95154 19.0407,-18.69391 5.0663,-2.3746 6.9172,-2.68006 16.2391,-2.68006 9.8432,0 10.9452,0.20882 17.105,3.24128 7.9293,3.90359 14.9515,11.05606 18.6939,19.04065 2.3735,5.06407 2.68,6.919 2.68,16.21807 0,9.29907 -0.3065,11.154 -2.68,16.21807 -3.7263,7.95037 -10.7681,15.13876 -18.6132,19.00092 -5.6427,2.77789 -7.7077,3.23848 -15.605,3.4807 -5.7421,0.17611 -10.6572,-0.22776 -13.3157,-1.09413 z m 227.71391,58.39444 v -8 h 28 28 v -8 -8 h -28 -28 v -8 -8 h -16 -16 v 8 8 h -28 -28 v 8 8 h 28 28 v 8 8 h 16 16 z m -32,-80 v -8 h 44 44 v -8 -8 h -44 -44 v -8 -8 h -16 -16 v 8 8 h -12 -12 v 8 8 h 12 12 v 8 8 h 16 16 z m 48,-80 v -8 h 20 20 v -8 -8 h -20 -20 v -8 -8 h -16 -16 v 8 8 h -36 -36 v 8 8 h 36 36 v 8 8 h 16 16 z m -328.000008,-104 v -8 h -8 -8 v 8 8 h 8 8 z m 31.999998,0 v -8 h -8 -7.999998 v 8 8 h 7.999998 8 z m 32,0 v -8 h -8 -8 v 8 8 h 8 8 z m 304.00001,0 v -8 h -96 -96 v 8 8 h 96 96 z"
       id="path843" />
    <path
       style="fill:#004e8c;fill-opacity:1"
       d="m 47.932528,428.25721 c -6.9196,-1.35989 -12.732,-4.68402 -17.5391,-10.03067 -8.7601,-9.74333 -8.0926,3.28073 -8.0926,-157.89172 v -142.5 l 2.6094,-5.5 c 3.3756,-7.11522 8.8619,-12.624083 15.824,-15.889298 l 5.5666,-2.610703 h 207.000002 207 l 5.5456,2.601113 c 7.8814,3.696678 12.4349,8.098268 16.1186,15.580768 l 3.2052,6.51076 0.4447,19.40368 0.4447,19.40368 H 281.93023 77.800828 v 44.50525 44.50525 l -4,9.61103 c -2.2,5.28606 -4,9.97951 -4,10.42989 0,0.45038 1.7904,2.08556 3.9786,3.63373 l 3.9787,2.81485 v 20.5 20.5 l -3.9787,2.81485 c -2.1882,1.54817 -3.9786,3.20004 -3.9786,3.67082 0,0.47079 1.67,4.6041 3.7111,9.18515 l 3.711,8.32918 0.539,34.5 c 0.5211,33.36261 0.6133,34.6392 2.795,38.7222 4.4056,8.24465 10.8532,13.94087 19.1262,16.89722 3.120702,1.11517 0.1141,1.28377 -21.8823,1.22712 -14.025,-0.0361 -27.4657,-0.45199 -29.8683,-0.92415 z m 29.8683,-302.92239 v -8 h -8 -8 v 8 8 h 8 8 z m 32.000002,0 v -8 h -8 -8.000002 v 8 8 h 8.000002 8 z m 32,0 v -8 h -8 -8 v 8 8 h 8 8 z m 304,0 v -8 h -96 -96 v 8 8 h 96 96 z"
       id="path841" />
    <path
       style="fill:#003259;fill-opacity:1"
       d="m 21.975428,137.58482 c 0.3173,-17.62613 0.5863,-20.25281 2.5014,-24.42567 3.033,-6.6089 9.59,-13.316401 16.1825,-16.553861 l 5.6415,-2.77047 29.5,-0.25401 29.500002,-0.25402 -5.2002,1.83348 c -10.453402,3.68567 -16.851302,10.095111 -20.437702,20.474391 -0.9882,2.86009 -1.8115,4.41266 -1.8295,3.45016 -0.028,-1.51811 -1.0927,-1.75 -8.0326,-1.75 h -8 v 8 8 h 8 8 v 12 12 h -28.0904 -28.0905 z"
       id="path839" />
  </g>
</svg>
