<?xml version="1.0" encoding="UTF-8" standalone="no"?>
<svg
   xmlns:dc="http://purl.org/dc/elements/1.1/"
   xmlns:cc="http://creativecommons.org/ns#"
   xmlns:rdf="http://www.w3.org/1999/02/22-rdf-syntax-ns#"
   xmlns:svg="http://www.w3.org/2000/svg"
   xmlns="http://www.w3.org/2000/svg"
   xmlns:sodipodi="http://sodipodi.sourceforge.net/DTD/sodipodi-0.dtd"
   xmlns:inkscape="http://www.inkscape.org/namespaces/inkscape"
   width="135.3287mm"
   height="132.61166mm"
   viewBox="0 0 135.3287 132.61166"
   version="1.1"
   id="svg8"
   inkscape:export-filename="/home/marafed/Desktop/parrot OS/graphics/website/docs_download_ok.svg.png"
   inkscape:export-xdpi="66"
   inkscape:export-ydpi="66"
   inkscape:version="1.0.2 (e86c870879, 2021-01-15)"
   sodipodi:docname="docs_download_ok.svg">
  <defs
     id="defs2" />
  <sodipodi:namedview
     id="base"
     pagecolor="#ffffff"
     bordercolor="#666666"
     borderopacity="1.0"
     inkscape:pageopacity="0.0"
     inkscape:pageshadow="2"
     inkscape:zoom="0.35"
     inkscape:cx="-159.94824"
     inkscape:cy="510.62111"
     inkscape:document-units="mm"
     inkscape:current-layer="layer1"
     inkscape:document-rotation="0"
     showgrid="false"
     inkscape:window-width="1920"
     inkscape:window-height="1054"
     inkscape:window-x="1920"
     inkscape:window-y="0"
     inkscape:window-maximized="1" />
  <metadata
     id="metadata5">
    <rdf:RDF>
      <cc:Work
         rdf:about="">
        <dc:format>image/svg+xml</dc:format>
        <dc:type
           rdf:resource="http://purl.org/dc/dcmitype/StillImage" />
        <dc:title></dc:title>
      </cc:Work>
    </rdf:RDF>
  </metadata>
  <g
     inkscape:label="Livello 1"
     inkscape:groupmode="layer"
     id="layer1"
     transform="translate(-148.15297,-13.064831)">
    <path
       style="fill:#3ab4ff;fill-opacity:1;stroke:#3ab4ff;stroke-width:2.54757;stroke-linecap:round;stroke-linejoin:round;stroke-miterlimit:4;stroke-dasharray:none;stroke-opacity:1"
       d="M 265.1473,59.612096 V 119.64526 H 171.21189 V 59.608516 Z"
       id="path876-6"
       sodipodi:nodetypes="ccccc" />
    <path
       style="fill:#665e66;fill-opacity:1;stroke:none;stroke-width:1.82642;stroke-linecap:round;stroke-linejoin:round;stroke-miterlimit:4;stroke-dasharray:none;stroke-opacity:1;paint-order:fill markers stroke"
       d="m 267.87885,50.060126 c 4.53267,0.76442 6.44011,3.34898 6.92197,6.92196 v 73.891104 h 6.11223 c 2.78975,0.0939 2.50138,2.78924 2.56863,4.449 v 7.86724 c -0.22876,1.68623 -1.42972,2.33193 -3.28556,2.34017 l -129.89275,-0.0421 c -2.00411,-0.59233 -2.23338,-2.05893 -2.13005,-3.68936 v -8.24786 c 0.66592,-2.84515 2.5379,-2.40536 4.23404,-2.44452 h 4.56223 l 0.10063,-75.006584 c 0.24248,-2.58146 2.58235,-5.52033 6.40655,-5.87636 z"
       id="path839"
       sodipodi:nodetypes="ccccccccccccccc" />
    <path
       style="fill:#756e78;fill-opacity:1;stroke:none;stroke-width:1.82642;stroke-linecap:round;stroke-linejoin:round;stroke-miterlimit:4;stroke-dasharray:none;stroke-opacity:1;paint-order:fill markers stroke"
       d="m 156.9505,127.1256 h 108.64182 c 2.98146,-0.18932 5.22323,-1.16614 4.88728,-4.88729 V 56.591336 c -0.84556,-4.15957 -2.79734,-6.55517 -6.36851,-6.36853 H 163.47677 c -3.20026,0.83552 -5.50203,2.81661 -6.44805,6.44806 z"
       id="path843"
       sodipodi:nodetypes="cccccccc" />
    <path
       style="fill:#89d3ff;fill-opacity:1;stroke:#89d3ff;stroke-width:2.54757;stroke-linecap:round;stroke-linejoin:round;stroke-miterlimit:4;stroke-dasharray:none;stroke-opacity:1"
       d="M 260.54516,59.676766 V 119.70992 H 166.60974 V 59.673176 Z"
       id="path876"
       sodipodi:nodetypes="ccccc" />
    <path
       style="fill:#005360;fill-opacity:1;stroke:#005360;stroke-width:1.38698;stroke-linecap:butt;stroke-linejoin:round;stroke-miterlimit:4;stroke-dasharray:none;stroke-opacity:1"
       d="m 211.15472,73.837082 19.0938,-19.179266 h -6.60821 v -40.88942 h 4.76844 v 40.70309 h 10.67239 l -23.68037,23.786357 z"
       id="path872" />
    <path
       style="fill:#00879c;fill-opacity:1;stroke:#00879c;stroke-width:1.40713;stroke-linecap:butt;stroke-linejoin:round;stroke-miterlimit:4;stroke-dasharray:none;stroke-opacity:1"
       d="m 203.66702,13.768396 h 19.98757 v 41.40559 h 8.98906 L 212.41604,75.4016 192.40878,55.394336 h 11.21753 z"
       id="path850"
       sodipodi:nodetypes="cccccccc" />
    <path
       style="fill:#005360;fill-opacity:1;stroke:#00879c;stroke-width:4.12671;stroke-linecap:round;stroke-linejoin:round;stroke-miterlimit:4;stroke-dasharray:none;stroke-opacity:1"
       d="m 197.33776,87.457858 h 37.50138"
       id="path874" />
    <path
       style="fill:#3ab4ff;fill-opacity:1;stroke:none;stroke-width:0.978165;stroke-linecap:round;stroke-linejoin:round;stroke-miterlimit:4;stroke-dasharray:none;stroke-opacity:1"
       d="m 189.91759,57.639586 h 3.94227 l 21.31613,21.31613 21.36786,-21.36787 h 4.54274 c -8.54796,8.629905 -20.74725,20.788242 -25.64388,25.88971 z"
       id="path911"
       sodipodi:nodetypes="ccccccc" />
    <path
       style="fill:#3ab4ff;fill-opacity:1;stroke:none;stroke-width:1.81845;stroke-linecap:round;stroke-linejoin:round;stroke-miterlimit:4;stroke-dasharray:none;stroke-opacity:1;paint-order:fill markers stroke"
       d="m 258.37858,58.429206 2.7675,-0.007 c 0.87775,0.0641 1.18273,0.66676 1.26947,1.47464 v 59.534264 c -0.0679,0.88389 -0.45311,1.54439 -1.64869,1.63434 h -4.38052 c 0.65056,-0.57036 1.85912,-0.5543 1.84218,-1.82613 z"
       id="path841"
       sodipodi:nodetypes="cccccccc" />
    <path
       style="fill:#756e78;fill-opacity:1;stroke:none;stroke-width:1.82642;stroke-linecap:round;stroke-linejoin:round;stroke-miterlimit:4;stroke-dasharray:none;stroke-opacity:1;paint-order:fill markers stroke"
       d="m 150.53138,131.17502 126.41789,-0.28032 c 1.44524,0.0893 2.03372,1.08154 1.98997,2.32121 v 10.20354 c 0.0206,1.26794 -0.4952,2.00503 -2.2553,2.08402 l -125.4757,0.17216 c -1.3918,0.0249 -2.6922,-0.47479 -2.92084,-2.92085 v -9.13655 c 0.0718,-1.50404 1.25046,-2.40202 2.24398,-2.44321 z"
       id="path845"
       sodipodi:nodetypes="ccccccccc" />
    <path
       style="fill:#fcfcfd;fill-opacity:1;stroke:none;stroke-width:1.82642;stroke-linecap:round;stroke-linejoin:round;stroke-miterlimit:4;stroke-dasharray:none;stroke-opacity:1;paint-order:fill markers stroke"
       d="m 201.00541,131.02344 2.5728,6.20526 c 0.39051,0.81945 0.99779,1.14574 1.73553,1.1752 h 20.54031 c 0.79562,-0.0294 1.6918,-0.0698 2.26182,-1.32272 l 2.53292,-6.03592 z"
       id="path847"
       sodipodi:nodetypes="ccccccc" />
  </g>
</svg>
