<?xml version="1.0" encoding="UTF-8" standalone="no"?>
<svg
   xmlns:dc="http://purl.org/dc/elements/1.1/"
   xmlns:cc="http://creativecommons.org/ns#"
   xmlns:rdf="http://www.w3.org/1999/02/22-rdf-syntax-ns#"
   xmlns:svg="http://www.w3.org/2000/svg"
   xmlns="http://www.w3.org/2000/svg"
   xmlns:sodipodi="http://sodipodi.sourceforge.net/DTD/sodipodi-0.dtd"
   xmlns:inkscape="http://www.inkscape.org/namespaces/inkscape"
   width="136.23201mm"
   height="135.31796mm"
   viewBox="0 0 136.23201 135.31796"
   version="1.1"
   id="svg8"
   inkscape:export-filename="/home/marafed/Desktop/parrot OS/graphics/website/docs_download_ok.svg.png"
   inkscape:export-xdpi="66"
   inkscape:export-ydpi="66"
   inkscape:version="1.0.2 (e86c870879, 2021-01-15)"
   sodipodi:docname="docs_getstarted_ok.svg">
  <defs
     id="defs2" />
  <sodipodi:namedview
     id="base"
     pagecolor="#ffffff"
     bordercolor="#666666"
     borderopacity="1.0"
     inkscape:pageopacity="0.0"
     inkscape:pageshadow="2"
     inkscape:zoom="0.35"
     inkscape:cx="257.44633"
     inkscape:cy="255.71896"
     inkscape:document-units="mm"
     inkscape:current-layer="layer1"
     inkscape:document-rotation="0"
     showgrid="false"
     inkscape:window-width="1920"
     inkscape:window-height="1054"
     inkscape:window-x="1920"
     inkscape:window-y="0"
     inkscape:window-maximized="1" />
  <metadata
     id="metadata5">
    <rdf:RDF>
      <cc:Work
         rdf:about="">
        <dc:format>image/svg+xml</dc:format>
        <dc:type
           rdf:resource="http://purl.org/dc/dcmitype/StillImage" />
        <dc:title></dc:title>
      </cc:Work>
    </rdf:RDF>
  </metadata>
  <g
     inkscape:label="Livello 1"
     inkscape:groupmode="layer"
     id="layer1"
     transform="translate(-37.717325,-39.261962)">
    <path
       style="fill:#c0c7da;fill-opacity:1;stroke-width:0.264583"
       d="m 92.589279,120.62188 12.287321,-12.28519 12.28731,-12.285185 -1.25823,-1.604716 c -1.6365,-2.087158 -2.45957,-3.556244 -3.29056,-5.873247 -3.8526,-10.742044 2.11261,-22.304359 13.31235,-25.803208 2.57515,-0.80449 7.88843,-0.87611 10.57496,-0.142542 2.42483,0.662109 5.15449,2.037982 7.24493,3.651778 l 1.79705,1.387309 13.05136,-13.049363 c 8.88935,-8.887992 13.09355,-13.380344 13.36227,-13.277225 0.217,0.08327 0.81863,1.224004 1.23474,2.071428 l 0.75656,1.540772 -0.0169,7.276041 c -0.017,7.354957 -0.234,10.446364 -1.18843,16.933332 -1.58896,10.79966 -5.0242,21.551387 -9.80616,30.691667 -4.46536,8.535129 -16.71273,24.150169 -24.76021,30.055209 -32.9977,23.23831 -37.57871,27.84165 -45.588411,-9.28686 z"
       id="path853"
       sodipodi:nodetypes="cccssssscssscssscc" />
    <path
       style="fill:#dfe2ec;fill-opacity:1;stroke-width:0.264583"
       d="m 38.98085,108.60008 c 0.268703,0.5916 0.880449,1.52197 1.359434,2.06751 1.634588,1.86169 2.447947,2.09669 12.845976,3.7115 5.240576,0.81385 9.594218,1.47973 9.674757,1.47973 0.08054,0 0.09012,0.87761 0.02127,1.95024 -0.08991,1.40104 0.0024,2.35101 0.327899,3.37344 0.428783,1.34694 1.164163,2.12955 13.724791,14.60618 15.127248,15.02609 14.637049,14.63843 18.20151,14.39411 1.144929,-0.0785 2.081689,-0.11529 2.081689,-0.0818 0,0.0335 0.659238,4.331 1.464971,9.55004 0.957914,6.20476 1.649663,9.90684 1.998563,10.69588 1.13051,2.55667 3.26859,4.00394 6.19223,4.19156 1.67042,0.10721 2.11573,0.034 3.34547,-0.54973 0.78021,-0.37039 6.30012,-3.92729 12.26648,-7.90426 9.01549,-6.00942 11.01583,-7.45432 11.84198,-8.55377 1.89171,-2.51749 1.99213,-3.04634 2.98754,-15.73349 0.49705,-6.33522 0.90586,-11.73689 0.90846,-12.00368 0.005,-0.4704 0.33366,-0.34718 -0.27498,0.12321 -7.75071,5.99026 -13.0227,9.12821 -18.85793,12.13583 l -3.33664,1.7198 -11.58245,-11.57518 -11.582458,-11.57518 12.285188,-12.28732 12.82143,-12.91107 1.60471,1.258229 c 2.08716,1.6365 3.4632,2.914139 5.8377,3.562861 11.27241,3.07966 21.06779,-1.761144 25.30252,-12.960885 0.95417,-2.52353 0.87611,-7.88843 0.14254,-10.574959 -0.66211,-2.424838 -2.42785,-5.659514 -3.65178,-7.244932 l -1.38731,-1.797055 13.04936,-13.051361 c 8.888,-8.889349 13.00548,-13.277138 13.29014,-13.234577 0.90148,0.134787 -1.23692,-0.946316 -2.08434,-1.362427 l -1.54077,-0.756562 -7.27604,0.01685 c -7.35496,0.01704 -10.44636,0.233993 -16.93333,1.188424 -10.79966,1.588963 -21.55139,5.024202 -30.69167,9.806165 -8.53513,4.465362 -18.736546,12.571103 -26.453439,21.019102 -2.215531,2.425435 -3.426585,3.555973 -3.809349,3.556092 -0.308645,9.6e-5 -5.682443,0.407943 -11.941776,0.906325 -12.660029,1.00802 -13.258326,1.126175 -15.774791,3.115329 -1.11424,0.880755 -2.662219,3.045843 -8.640775,12.08547 -4.005848,6.056871 -7.499803,11.488751 -7.764346,12.070831 -0.645991,1.4214 -0.642298,4.14276 0.0076,5.57355 z"
       id="path853-3"
       sodipodi:nodetypes="ssssscssssssssssssscccccssssscssscsssssssssss" />
    <path
       style="fill:#ffb036;fill-opacity:1;stroke-width:0.264583"
       d="m 39.81632,173.91145 c -1.762617,-0.73234 -2.666296,-3.55232 -1.713118,-5.34588 0.208833,-0.39296 6.132192,-6.45506 13.16302,-13.47134 13.322997,-13.29542 13.903609,-13.79327 15.655,-13.42334 2.814987,0.59457 4.112406,3.16656 2.834667,5.61939 -0.765612,1.46972 -25.578719,26.13336 -26.798369,26.63694 -1.207818,0.49871 -1.911461,0.49517 -3.1412,-0.0159 z m 23.286408,-0.44429 c -0.537805,-0.36242 -1.089486,-1.07627 -1.38751,-1.79538 -0.426508,-1.02912 -0.451659,-1.35663 -0.182387,-2.37493 0.274981,-1.03986 1.124751,-1.99864 7.103071,-8.01423 3.765719,-3.7892 7.253465,-7.07284 7.829518,-7.37134 2.069436,-1.07234 4.49108,-0.15072 5.322184,2.0255 0.897493,2.35005 0.870826,2.38935 -6.9762,10.28 -3.881734,3.90332 -7.379203,7.26684 -7.772159,7.47448 -1.097846,0.58013 -2.89492,0.47784 -3.936517,-0.2241 z m -23.78093,-23.90383 c -1.486902,-1.25115 -1.949865,-2.83774 -1.317559,-4.51532 0.31536,-0.83668 13.136862,-13.83963 14.461517,-14.66617 2.746732,-1.71387 6.353825,0.75613 5.769255,3.95057 -0.15208,0.83106 -1.219965,2.02228 -7.236105,8.07187 -3.881734,3.90332 -7.379206,7.26683 -7.772162,7.47448 -1.188842,0.62822 -2.952819,0.48573 -3.904946,-0.31543 z"
       id="path849"
       sodipodi:nodetypes="ssssssssssssssssssssssss" />
    <path
       style="fill:#ff6a29;fill-opacity:1;stroke-width:0.264583"
       d="m 40.434294,174.08338 c -2.199087,-0.52076 -2.897373,0.31175 13.461378,-16.04887 11.652667,-11.65399 15.231662,-15.08871 15.49488,-14.87026 0.188254,0.15624 0.480735,0.74619 0.64996,1.31102 0.635336,2.12056 0.807704,1.91387 -13.599472,16.30663 -9.291825,9.28253 -13.479933,13.29531 -13.876189,13.29531 -0.312156,0 -0.72612,0.0471 -0.919925,0.10472 -0.193802,0.0576 -0.738587,0.0132 -1.210632,-0.0985 z m 23.018765,-0.4413 c -1.694733,-0.83548 -2.456402,-3.33833 -1.542333,-5.0681 0.207651,-0.39296 3.571166,-3.89043 7.474479,-7.77217 6.049586,-6.01614 7.240812,-7.08403 8.071874,-7.23611 2.769409,-0.50679 5.138917,2.10389 4.400134,4.84798 -0.209314,0.77746 -1.687213,2.40906 -7.174701,7.92084 -3.801099,3.81792 -7.290887,7.1219 -7.755091,7.34219 -1.08278,0.51382 -2.388235,0.5008 -3.474362,-0.0346 z"
       id="path845"
       sodipodi:nodetypes="ssssssssssssssss" />
    <path
       style="fill:#89d3ff;fill-opacity:1;stroke:none;stroke-width:10.9802;stroke-linecap:round;stroke-linejoin:round"
       d="m 144.52926,68.514276 -21.45029,21.44387 c -3.86895,-2.154298 -4.321,-7.831624 -5.5111,-12.747972 l 15.39338,-13.391257 z"
       id="path886"
       sodipodi:nodetypes="ccccc" />
    <path
       style="fill:#005360;fill-opacity:1;stroke-width:0.264583"
       d="m 106.06031,174.18267 c -2.4138,-0.49662 -4.6781,-2.49055 -5.39679,-4.75239 -0.21312,-0.67077 -1.017809,-5.35951 -1.788188,-10.41946 l -1.400694,-9.19991 -1.888844,0.17116 c -1.44317,0.13077 -2.225101,0.0621 -3.313938,-0.29105 -1.335019,-0.43301 -2.200241,-1.2336 -13.689669,-12.66709 -6.745517,-6.71268 -12.845121,-12.89283 -13.554672,-13.73368 -1.77225,-2.10019 -2.250167,-3.76268 -1.826506,-6.35371 0.944374,-5.77563 2.760861,-11.70518 5.683734,-18.553415 l 0.442145,-1.035939 23.213716,23.212584 23.213716,23.2126 1.43685,-0.63642 c 4.43294,-1.96348 12.60094,-7.07788 17.84101,-11.17117 2.38021,-1.8593 2.92482,-2.18268 2.98946,-1.77507 0.12129,0.76482 -1.5067,21.44636 -1.80099,22.87932 -0.32505,1.5827 -1.33098,3.58879 -2.42351,4.83311 -0.84002,0.95674 -20.99561,14.49473 -23.23891,15.60897 -1.36798,0.67948 -3.1594,0.94694 -4.49792,0.67156 z"
       id="path843"
       sodipodi:nodetypes="ssscsssssscccsssssss" />
    <path
       style="fill:#3ab4ff;fill-opacity:1;stroke:none;stroke-width:10.9802;stroke-linecap:round;stroke-linejoin:round"
       d="m 123.07897,89.958146 21.45029,-21.44387 5.51111,12.747971 -15.71631,16.177604 z"
       id="path886-6"
       sodipodi:nodetypes="ccccc" />
    <path
       style="fill:#00879c;fill-opacity:1;stroke-width:0.264583"
       d="m 38.916575,107.04119 c 0.49662,2.41381 2.490562,4.67811 4.752409,5.39679 0.670747,0.21313 5.3595,1.01781 10.419452,1.78819 l 9.199912,1.40069 -0.171161,1.88885 c -0.130776,1.44317 -0.0621,2.2251 0.291052,3.31394 0.433003,1.33502 1.233595,2.20024 12.667085,13.68967 6.712677,6.74551 12.892833,12.84512 13.733682,13.55467 2.100191,1.77225 3.762679,2.25017 6.353709,1.82651 5.775625,-0.94438 11.705175,-2.76087 18.553415,-5.68374 l 1.03594,-0.44215 L 92.539479,120.5609 69.326888,97.347186 69.963309,95.910334 c 1.963475,-4.432945 7.077871,-12.600942 11.171163,-17.841015 1.859304,-2.380205 2.18268,-2.924815 1.775076,-2.989456 -0.764825,-0.12129 -21.446367,1.506702 -22.879321,1.800993 -1.582703,0.325045 -3.588795,1.330975 -4.833115,2.423503 -0.956739,0.840029 -14.494721,20.995611 -15.608977,23.238921 -0.679479,1.36798 -0.946946,3.1594 -0.67156,4.49791 z"
       id="path843-7"
       sodipodi:nodetypes="ssscsssssscccsssssss" />
    <path
       style="fill:#004e8c;fill-opacity:1;stroke-width:0.264583"
       d="m 92.563871,149.41887 c -0.526452,-0.18812 -1.373661,-0.59944 -1.882685,-0.91404 -0.509024,-0.31459 -6.655996,-6.39211 -13.659934,-13.50559 -9.238388,-9.38288 -12.878419,-13.25093 -13.258898,-14.08945 -0.324853,-0.71593 -0.526675,-1.73663 -0.530274,-2.68182 -0.01336,-3.50803 2.710414,-13.24297 5.409722,-19.334697 l 0.685086,-1.546087 23.140466,22.941264 c 12.727256,12.6177 23.080646,23.03806 23.007536,23.15636 -0.16405,0.26543 -6.11368,2.61838 -8.98925,3.55504 -3.93599,1.28209 -10.555697,2.79475 -12.13381,2.77269 -0.456925,-0.006 -1.261504,-0.16554 -1.787959,-0.35367 z m 35.240619,-48.60572 c -6.13242,-1.20316 -11.11097,-5.027421 -13.91989,-10.692539 -1.62514,-3.277624 -2.0809,-5.196158 -2.07419,-8.73125 0.009,-4.893255 1.29434,-8.590844 4.30024,-12.373449 3.55552,-4.474251 8.55009,-6.983633 14.45208,-7.261046 5.05571,-0.237636 9.27929,1.164095 13.43447,4.458662 4.63094,3.671795 7.10018,8.883456 7.12749,15.043541 0.0154,3.473021 -0.50102,5.725107 -2.04019,8.89721 -1.96769,4.055245 -5.93609,7.784544 -10.07197,9.465101 -3.23792,1.31569 -8.00092,1.82299 -11.20804,1.19377 z m 6.72255,-7.968032 c 2.72921,-0.685208 6.00807,-3.233238 7.3622,-5.721223 2.51936,-4.628888 1.77231,-10.095743 -1.93369,-14.1507 -3.3244,-3.637423 -9.01261,-4.66513 -13.6449,-2.465266 -7.80618,3.707138 -9.30072,14.048227 -2.85084,19.725638 3.03436,2.670955 7.0533,3.619309 11.06723,2.611551 z"
       id="path841" />
    <path
       style="fill:#003259;fill-opacity:1;stroke-width:0.264583"
       d="m 93.035417,149.91245 c -0.436563,-0.10628 -1.210469,-0.40694 -1.719792,-0.66813 -0.99332,-0.5094 -13.758333,-13.02921 -13.758333,-13.49405 0,-0.35445 14.597568,-14.95916 14.95184,-14.95916 0.14519,0 5.434248,5.17129 11.753458,11.49175 l 11.48948,11.49175 -1.55426,0.68737 c -4.52814,2.00256 -10.73531,3.97506 -15.76879,5.01097 -3.467241,0.71358 -4.067043,0.76245 -5.393603,0.4395 z m 24.660613,-54.48883 2.62744,-2.691535 c 0.91041,-0.932619 2.7555,-2.773939 2.7555,-2.773939 13.44709,10.449894 26.73665,-6.97711 16.94063,-16.926139 l 2.52998,-2.548948 c 1.42668,-1.437392 2.87725,-2.834831 3.04954,-2.834831 16.83958,18.825162 -7.94963,45.239862 -27.90309,27.775392 z"
       id="path839"
       sodipodi:nodetypes="ssssscssscsccscc" />
  </g>
</svg>
