<?xml version="1.0" encoding="UTF-8" standalone="no"?>
<svg
   xmlns:dc="http://purl.org/dc/elements/1.1/"
   xmlns:cc="http://creativecommons.org/ns#"
   xmlns:rdf="http://www.w3.org/1999/02/22-rdf-syntax-ns#"
   xmlns:svg="http://www.w3.org/2000/svg"
   xmlns="http://www.w3.org/2000/svg"
   xmlns:sodipodi="http://sodipodi.sourceforge.net/DTD/sodipodi-0.dtd"
   xmlns:inkscape="http://www.inkscape.org/namespaces/inkscape"
   version="1.1"
   id="Layer_1"
   x="0px"
   y="0px"
   viewBox="0 0 491.52 491.52"
   style="enable-background:new 0 0 491.52 491.52;"
   xml:space="preserve"
   sodipodi:docname="docs_mirrors_ok.svg"
   inkscape:export-filename="/home/marafed73/Scaricati/server.png"
   inkscape:export-xdpi="68.599998"
   inkscape:export-ydpi="68.599998"
   inkscape:version="1.0.2 (e86c870879, 2021-01-15)"><metadata
   id="metadata69"><rdf:RDF><cc:Work
       rdf:about=""><dc:format>image/svg+xml</dc:format><dc:type
         rdf:resource="http://purl.org/dc/dcmitype/StillImage" /><dc:title></dc:title></cc:Work></rdf:RDF></metadata><defs
   id="defs67"><filter
     inkscape:collect="always"
     style="color-interpolation-filters:sRGB"
     id="filter888"
     x="-0.024026574"
     width="1.0480531"
     y="-0.023973485"
     height="1.047947"><feGaussianBlur
       inkscape:collect="always"
       stdDeviation="0.50632"
       id="feGaussianBlur890" /></filter></defs><sodipodi:namedview
   pagecolor="#ffffff"
   bordercolor="#666666"
   borderopacity="1"
   objecttolerance="10"
   gridtolerance="10"
   guidetolerance="10"
   inkscape:pageopacity="0"
   inkscape:pageshadow="2"
   inkscape:window-width="1920"
   inkscape:window-height="1001"
   id="namedview65"
   showgrid="false"
   inkscape:zoom="0.50525166"
   inkscape:cx="53.69763"
   inkscape:cy="359.90373"
   inkscape:window-x="0"
   inkscape:window-y="27"
   inkscape:window-maximized="1"
   inkscape:current-layer="Layer_1"
   inkscape:document-rotation="0" />
<rect
   x="34.012001"
   y="132.80299"
   style="fill:#494751;fill-opacity:1"
   width="423.47501"
   height="222.31"
   id="rect2" />
<path
   style="fill:#605f6d;fill-opacity:1"
   d="M473.677,0H17.843C7.988,0,0,8.006,0,17.881v115.438c0,9.875,7.988,17.88,17.843,17.88h455.834  c9.854,0,17.843-8.005,17.843-17.88V17.881C491.52,8.006,483.531,0,473.677,0z"
   id="path4" />
<rect
   x="242.534"
   y="26.865"
   style="fill:#50b2ff;fill-opacity:1"
   width="222.208"
   height="97.485"
   id="rect6" />
<rect
   x="242.534"
   y="106.46"
   style="fill:#1c9aff;fill-opacity:1"
   width="222.208"
   height="17.874"
   id="rect8" />
<ellipse
   style="fill:#ffb036;filter:url(#filter888);fill-opacity:1"
   cx="66.504"
   cy="75.597"
   rx="25.288"
   ry="25.344"
   id="ellipse10" />
<ellipse
   style="fill:#ff6a29;fill-opacity:1"
   cx="155.464"
   cy="75.597"
   rx="25.288"
   ry="25.344"
   id="ellipse12" />
<path
   style="fill:#605f6d;fill-opacity:1"
   d="M473.677,170.161H17.843C7.988,170.161,0,178.165,0,188.041V303.48c0,9.875,7.988,17.88,17.843,17.88  h455.834c9.854,0,17.843-8.005,17.843-17.88V188.041C491.52,178.165,483.531,170.161,473.677,170.161z"
   id="path14" />
<rect
   x="242.534"
   y="197.028"
   style="fill:#50b2ff;fill-opacity:1"
   width="222.208"
   height="97.485"
   id="rect16" />
<rect
   x="242.534"
   y="276.634"
   style="fill:#1c9aff;fill-opacity:1"
   width="222.208"
   height="17.874"
   id="rect18" />
<ellipse
   style="fill:#ffb036;fill-opacity:1"
   cx="66.504"
   cy="245.76"
   rx="25.288"
   ry="25.344"
   id="ellipse20" />
<ellipse
   style="fill:#ff6a29;fill-opacity:1"
   cx="155.464"
   cy="245.76"
   rx="25.288"
   ry="25.344"
   id="ellipse22" />
<path
   style="fill:#605f6d;fill-opacity:1"
   d="M473.677,340.32H17.843C7.988,340.32,0,348.326,0,358.202V473.64c0,9.875,7.988,17.88,17.843,17.88  h455.834c9.854,0,17.843-8.005,17.843-17.88V358.202C491.52,348.326,483.531,340.32,473.677,340.32z"
   id="path24" />
<rect
   x="242.534"
   y="367.206"
   style="fill:#50b2ff;fill-opacity:1"
   width="222.208"
   height="97.485"
   id="rect26" />
<rect
   x="242.534"
   y="446.771"
   style="fill:#1c9aff;fill-opacity:1"
   width="222.208"
   height="17.874"
   id="rect28" />
<ellipse
   style="fill:#ffb036;fill-opacity:0.94117647"
   cx="66.504"
   cy="415.898"
   rx="25.288"
   ry="25.344"
   id="ellipse30" />
<ellipse
   style="fill:#ff6a29;fill-opacity:1"
   cx="155.464"
   cy="415.898"
   rx="25.288"
   ry="25.344"
   id="ellipse32" />
<g
   id="g34">
</g>
<g
   id="g36">
</g>
<g
   id="g38">
</g>
<g
   id="g40">
</g>
<g
   id="g42">
</g>
<g
   id="g44">
</g>
<g
   id="g46">
</g>
<g
   id="g48">
</g>
<g
   id="g50">
</g>
<g
   id="g52">
</g>
<g
   id="g54">
</g>
<g
   id="g56">
</g>
<g
   id="g58">
</g>
<g
   id="g60">
</g>
<g
   id="g62">
</g>
</svg>
