<?xml version="1.0" encoding="UTF-8" standalone="no"?>
<svg
   xmlns:dc="http://purl.org/dc/elements/1.1/"
   xmlns:cc="http://creativecommons.org/ns#"
   xmlns:rdf="http://www.w3.org/1999/02/22-rdf-syntax-ns#"
   xmlns:svg="http://www.w3.org/2000/svg"
   xmlns="http://www.w3.org/2000/svg"
   xmlns:sodipodi="http://sodipodi.sourceforge.net/DTD/sodipodi-0.dtd"
   xmlns:inkscape="http://www.inkscape.org/namespaces/inkscape"
   width="143.57063mm"
   height="144.45828mm"
   viewBox="0 0 143.57063 144.45828"
   version="1.1"
   id="svg8"
   inkscape:export-filename="/home/marafed/Desktop/parrot OS/graphics/website/docs_download_ok.svg.png"
   inkscape:export-xdpi="66"
   inkscape:export-ydpi="66"
   inkscape:version="1.0.2 (e86c870879, 2021-01-15)"
   sodipodi:docname="docs_tools_ok.svg">
  <defs
     id="defs2" />
  <sodipodi:namedview
     id="base"
     pagecolor="#ffffff"
     bordercolor="#666666"
     borderopacity="1.0"
     inkscape:pageopacity="0.0"
     inkscape:pageshadow="2"
     inkscape:zoom="0.35"
     inkscape:cx="957.33213"
     inkscape:cy="-25.573539"
     inkscape:document-units="mm"
     inkscape:current-layer="layer1"
     inkscape:document-rotation="0"
     showgrid="false"
     inkscape:window-width="1920"
     inkscape:window-height="1054"
     inkscape:window-x="1920"
     inkscape:window-y="0"
     inkscape:window-maximized="1" />
  <metadata
     id="metadata5">
    <rdf:RDF>
      <cc:Work
         rdf:about="">
        <dc:format>image/svg+xml</dc:format>
        <dc:type
           rdf:resource="http://purl.org/dc/dcmitype/StillImage" />
        <dc:title></dc:title>
      </cc:Work>
    </rdf:RDF>
  </metadata>
  <g
     inkscape:label="Livello 1"
     inkscape:groupmode="layer"
     id="layer1"
     transform="translate(147.46079,-113.68727)">
    <path
       style="fill:#dfe2ec;fill-opacity:1;stroke:#ffffff;stroke-width:0;stroke-linejoin:round"
       d="m -66.872596,184.95245 -4.472302,-4.25496 48.59292,-48.34345 c 1.553519,-3.91356 1.732775,-11.41032 5.38654,-10.46032 4.190909,2.36874 5.63966,3.36425 10.0387981,7.18692 l 1.8292724,5.79861 -12.5434445,1.30811 z"
       id="path889"
       sodipodi:nodetypes="cccccccc" />
    <path
       style="fill:#c0c7da;fill-opacity:1;stroke-width:0.282223"
       d="m -128.18689,257.79654 c -5.87893,-1.60798 -10.2637,-5.84158 -12.27189,-11.84876 -1.20729,-3.61142 -0.74434,-8.64327 1.15546,-12.55888 0.97623,-2.01208 1.77275,-2.86448 16.119,-17.24995 l 15.09202,-15.13327 1.31215,0.41116 c 1.76858,0.55419 6.01759,0.56049 7.823968,0.0116 3.702288,-1.12498 6.985391,-3.70996 8.774004,-6.9083 l 0.989827,-1.76998 -1.36449,-1.54346 c -0.750472,-0.8489 -3.840991,-4.27445 -6.867824,-7.61234 -4.726435,-5.21214 -5.602935,-6.05484 -6.208885,-5.96948 -0.38806,0.0547 -1.72156,0.37258 -2.96334,0.70647 -15.82457,4.25492 -32.91913,-4.59856 -38.72528,-20.05628 -2.14791,-5.71837 -2.72822,-12.73879 -1.51173,-18.2885 0.32163,-1.46734 0.58479,-2.70233 0.58479,-2.74442 0,-0.19254 1.71848,-0.93768 2.16252,-0.93768 0.27509,0 4.28434,3.77711 8.97457,8.45493 5.63598,5.62107 8.82904,8.60076 9.52662,8.89 1.32708,0.55025 2.49927,0.55189 3.80741,0.005 1.2896,-0.53883 12.80975,-11.90085 13.84774,-13.65766 0.99575,-1.68533 0.994,-3.44805 -0.005,-5.1274 -0.4078,-0.68547 -4.36923,-4.86497 -8.80316,-9.28778 -8.56965,-8.54815 -8.73415,-8.76919 -7.5068,-10.08659 0.66883,-0.7179 0.87781,-0.78656 4.06818,-1.33653 12.07907,-2.08224 24.430428,2.84211 31.832509,12.69127 2.200193,2.92756 4.533887,7.73271 5.482608,11.28888 1.089536,4.08399 1.270487,10.59252 0.410634,14.76991 -0.330182,1.60413 -0.843725,3.55714 -1.141204,4.34004 -0.533077,1.40295 -0.533069,1.43006 2.65e-4,1.8812 0.297688,0.25176 4.412578,3.95024 9.144201,8.21885 l 8.484441,7.94383 -2.612557,2.56828 -2.731066,2.751 2.248197,2.26146 2.248196,2.26146 24.415845,-24.38254 24.415937,-24.38254 4.797777,-2.4736 c 5.3845567,-2.77612 5.7855566,-3.05235 5.7855566,-3.98553 0,-0.95152 0.34027,-0.82703 1.6636709,0.60869 2.7474306,2.98061 2.5253791,3.34991 -4.1315719,6.87132 l -5.1490116,2.72373 -21.238762,21.25459 -21.238763,21.25459 1.143595,1.04096 c 0.628976,0.57253 11.423976,10.32018 23.988887,21.66144 12.564906,11.34127 23.4550768,21.30002 24.2003763,22.13057 1.506855,1.67923 3.3307125,5.25045 3.8944735,7.62562 0.592574,2.49655 0.4644284,6.55874 -0.2848954,9.03111 -0.9929971,3.27636 -2.1892234,5.26734 -4.6812226,7.79134 -1.7949678,1.81803 -2.7517648,2.52924 -4.6578868,3.46236 -3.910425,1.91428 -7.992821,2.4445 -11.93873,1.55057 -4.748453,-1.07574 -7.015241,-2.62263 -12.316232,-8.40478 -2.289522,-2.49733 -10.365237,-11.3351 -17.946031,-19.63949 -16.240892,-17.79109 -20.164253,-22.01333 -20.455067,-22.01333 -0.651775,0 -3.900141,2.56615 -4.966986,3.92383 -2.943762,3.74627 -3.946559,8.38788 -2.779868,12.8671 l 0.434853,1.66952 -14.334297,14.34626 c -8.753281,8.76058 -15.051011,14.83879 -16.175111,15.61129 -2.80055,1.92456 -5.4078,2.73495 -9.16585,2.84893 -2.1498,0.0652 -3.58177,-0.0364 -4.65667,-0.3304 z m 107.33332,-13.7031 c 1.56304,-0.43404 3.175733,-2.16217 3.518795,-3.77067 0.938268,-4.39926 -3.172391,-7.92679 -7.137874,-6.12531 -4.246655,1.92921 -4.323104,7.42239 -0.133085,9.5631 1.38117,0.70565 2.160693,0.77481 3.752164,0.33288 z"
       id="path877"
       sodipodi:nodetypes="sssscscscsssssssssssssssssssscscccccccsssscccssssssssssssscssssssssss" />
    <path
       style="fill:#50b2ff;fill-opacity:1;stroke-width:0.282223"
       d="m -127.92083,257.25366 c -4.75523,-1.0213 -9.3327,-4.50243 -11.37912,-8.65371 -1.4034,-2.84688 -1.88533,-4.93471 -1.88533,-8.16771 0,-3.36895 0.83664,-6.30775 2.56461,-9.00851 0.80526,-1.2586 5.57913,-6.24184 15.62488,-16.31016 l 14.46534,-14.49784 1.82339,0.45729 c 3.47316,0.87103 7.262193,0.39972 10.509956,-1.30732 2.165474,-1.13819 5.877147,-5.1359 6.943074,-7.19803 -3.317134,-8.4021 5.522923,-39.55364 17.909132,-11.87018 l 7.523877,7.0997 c 11.799628,14.42524 24.750683,-1.78434 -14.313215,19.12836 -3.061957,1.9152 -5.459608,5.03021 -6.519119,8.46958 -0.591748,1.92093 -0.602178,6.10723 -0.01971,7.90843 l 0.424323,1.31215 -15.133273,15.09203 c -14.386955,14.34773 -15.237665,15.14265 -17.249945,16.11873 -3.64587,1.76846 -7.4567,2.25024 -11.28889,1.42719 z"
       id="path879"
       sodipodi:nodetypes="ssssscssccccsscssss" />
    <path
       style="fill:#005ca6;fill-opacity:1;stroke-width:0.282223"
       d="m -126.3413,257.80606 c -2.19417,-0.35082 -4.56803,-1.22515 -6.4803,-2.38679 -1.85247,-1.12532 -4.81582,-4.1467 -5.62748,-5.73768 l -0.53872,-1.05599 2.07435,1.0425 c 5.61318,2.821 12.3082,2.42684 17.34548,-1.02119 11.3383,-10.48154 18.82392,-18.25932 30.545545,-29.9907 l -0.456107,-1.81868 c -1.918028,-7.64793 2.546826,-15.29779 10.249008,-17.56013 1.941867,-0.57038 5.338046,-0.57772 7.493895,-0.0162 l 1.666483,0.43406 2.915854,-2.90351 c 3.478506,-3.46378 4.145629,-4.63849 3.974872,-6.99918 l -0.120459,-1.66536 2.893927,-2.88408 c 28.270097,13.34641 3.305731,31.25614 -15.899778,21.25736 -2.922947,1.94073 -6.597435,5.41482 -7.739766,8.57722 -0.743119,2.05723 -0.883835,6.57498 -0.270592,8.68762 l 0.398436,1.37264 -14.932879,14.87562 c -13.452089,13.4005 -15.128779,14.97602 -16.908439,15.88816 -3.44177,1.76403 -7.21471,2.44291 -10.58333,1.90431 z m 55.033991,-77.19405 -2.328664,-2.31077 c -2.573544,-2.55377 -3.755043,-3.51187 -5.883526,-3.51187 -2.172155,0 -3.38673,0.63495 -6.549805,3.88745 l -3.159313,3.24863 0.643787,2.23875 c -1.115738,-0.0283 -0.01527,2.31175 0.133135,3.82891 -11.232708,-18.85269 30.991768,-21.15092 17.144386,-7.3811 z"
       id="path881"
       sodipodi:nodetypes="ssscsccssscsscccsscsssscssscccc" />
    <path
       style="fill:#003259;fill-opacity:1;stroke-width:0.282223"
       d="m -117.90544,241.01738 c -0.9272,-0.72933 -1.17839,-1.77923 -0.66001,-2.75857 0.69089,-1.30523 22.233977,-22.58859 23.071164,-22.79302 1.369139,-0.33431 2.753378,0.79545 2.768975,2.25994 0.0079,0.73794 -1.422699,2.2745 -11.495429,12.34723 -12.31668,12.31668 -12.12998,12.16737 -13.6847,10.94442 z m -7.26645,-7.54438 c -0.92312,-0.33129 -1.69333,-1.32135 -1.69333,-2.17668 0,-0.76862 1.33238,-2.2014 11.50183,-12.36858 11.88525,-11.8826 11.9232,-11.91452 13.46219,-11.32396 0.66124,0.25375 1.3218,1.6871 1.12988,2.45176 -0.19988,0.79638 -22.61433,23.22368 -23.41279,23.42622 -0.31045,0.0787 -0.75495,0.0748 -0.98778,-0.009 z"
       id="path883"
       sodipodi:nodetypes="ssssssssssssss" />
    <path
       style="fill:#605f6d;fill-opacity:1;stroke-width:0.282223"
       d="m -24.526714,256.95334 c -3.624011,-0.50524 -6.980555,-2.11633 -9.700646,-4.65616 -0.997431,-0.93134 -3.540826,-3.59771 -5.651987,-5.92528 -2.111163,-2.32757 -10.569477,-11.57998 -18.796256,-20.56091 -8.226777,-8.98094 -15.558831,-16.99981 -16.293452,-17.81973 l -1.335675,-1.49076 0.771229,-0.29977 c 2.582331,-1.00373 6.168123,-1.18532 8.966936,-0.45408 l 1.682072,0.43947 2.900098,-2.96499 c 3.135061,-3.20523 4.001953,-4.64851 4.001953,-6.66284 0,-1.90333 -0.865921,-3.46042 -3.304244,-5.94168 l -2.200185,-2.23892 2.866438,-2.85668 c 2.166143,-2.15878 2.971127,-2.79702 3.294959,-2.61248 0.235688,0.13432 1.870572,1.57771 3.633078,3.20754 1.762504,1.62984 12.030308,10.89603 22.817339,20.59154 10.787033,9.69551 20.523636,18.54619 21.6368967,19.66819 3.3916514,3.41825 5.1725565,7.77602 5.1725565,12.65693 0,6.94419 -3.814773,13.10288 -10.0237132,16.18261 -3.092249,1.53381 -7.106899,2.20231 -10.437397,1.738 z m 5.001427,-13.53196 c 1.707348,-1.16989 2.33635,-2.39034 2.33635,-4.53321 0,-1.60822 -0.116477,-2.04733 -0.807617,-3.04464 -1.43611,-2.07231 -4.567655,-2.93707 -6.799958,-1.87777 -3.95446,1.87651 -4.077951,7.62608 -0.208944,9.72798 1.457314,0.79171 4.12042,0.65936 5.480169,-0.27236 z m -76.666348,-58.6837 c -3.847845,-4.209 -7.025715,-7.65272 -7.061945,-7.65272 -0.0362,0 -0.80793,0.2553 -1.71489,0.56735 -4.81543,1.65675 -12.63694,1.85785 -17.99095,0.46257 -6.62858,-1.72743 -13.1727,-5.97587 -17.36812,-11.27539 -3.02736,-3.82405 -5.44629,-9.11207 -6.47544,-14.15599 -1.03407,-5.06802 -0.3207,-14.78685 1.16155,-15.82507 1.40126,-0.98147 1.62065,-0.81519 9.92105,7.5195 4.3452,4.36313 8.46495,8.30013 9.15504,8.74889 1.42713,0.92806 3.34213,1.09371 4.8927,0.42322 1.15295,-0.49856 13.89446,-13.30753 14.2961,-14.37178 0.38413,-1.01787 0.38392,-2.75631 -5.3e-4,-3.77326 -0.1652,-0.43696 -4.1022,-4.61126 -8.74893,-9.2762 -8.00412,-8.0356 -8.44849,-8.53625 -8.44849,-9.51849 0,-1.34143 0.56838,-1.70341 3.6689,-2.33661 3.25099,-0.66393 9.19904,-0.66008 12.41777,0.008 5.44269,1.12975 10.062088,3.2689 14.212419,6.58149 6.460439,5.15642 10.443146,11.92942 11.880982,20.20482 0.833273,4.79588 -0.173858,10.67258 -1.140405,15.37083 l -0.439917,2.13838 c 3.262405,3.10074 6.335387,5.75356 9.063278,8.19556 4.191,3.76127 7.801774,7.29203 8.186534,7.66298 l 0.699563,0.67446 -2.657586,2.66868 -2.661946,2.91856 -2.35862,-2.45197 c -0.689396,-0.71668 -3.445314,-3.06786 -5.287185,-3.32031 -2.216891,-0.30386 -3.546308,0.42971 -7.096961,3.91611 l -3.140953,3.08413 c 1.31495,2.90686 1.23956,6.38885 0.423907,9.23278 l -0.44932,1.40944 -6.937598,-7.82999 z"
       id="path885"
       sodipodi:nodetypes="ssssscsscssscsssssssssssssssssssssssssccssssssccscccsssccccs" />
    <path
       style="fill:#53515e;fill-opacity:1;stroke-width:0.282223"
       d="m -26.546276,256.3464 c -2.213327,-0.57959 -5.04267,-1.99476 -6.780879,-3.39162 -1.70394,-1.36932 -6.256284,-6.43281 -5.098534,-5.67101 5.665827,3.72816 13.173805,4.01326 19.100893,0.72533 4.935939,-2.73812 8.394612,-7.95492 9.114427,-13.74753 0.4165705,-3.35229 0.0526,-5.71625 -1.52939,-9.9333 -0.116461,-0.31045 0.850435,0.51505 2.1486551,1.83444 3.5385984,3.5963 5.1504109,7.03779 5.4811903,11.7033 0.8496485,11.98385 -10.7522084,21.54007 -22.4363624,18.48039 z m -47.714341,-47.8597 -1.793163,-1.91689 0.922681,-0.3765 c 2.401687,-0.97999 5.265791,-1.14005 8.250854,-0.46112 l 1.995752,0.45393 2.958584,-2.92337 c 3.341608,-3.30183 4.011679,-4.43808 4.020691,-6.81794 0.0082,-2.16459 -0.443357,-2.98111 -3.192037,-5.77201 l -2.293572,-2.3288 2.811163,-2.82176 c 1.54614,-1.55196 2.877048,-2.81674 2.957571,-2.81063 0.08052,0.006 1.035407,0.82447 2.121961,1.81858 l 1.975556,1.80747 -1.468943,1.49753 c -2.915107,2.97184 -3.098834,5.59941 -0.61115,8.74037 2.637009,3.32949 2.10706,6.27627 -1.806776,10.04649 -2.851076,2.74646 -3.468222,2.98051 -7.23179,2.74259 -2.340316,-0.14795 -3.392226,-0.0876 -4.826894,0.27699 -1.008947,0.25638 -2.096093,0.53271 -2.41589,0.61406 -0.446725,0.11364 -0.996899,-0.29622 -2.374598,-1.76899 z m -44.739513,-29.75343 c -4.89647,-0.66078 -11.26176,-3.26173 -15.13225,-6.18327 -1.89085,-1.42726 -6.88036,-6.45429 -6.64235,-6.6923 0.0711,-0.0711 0.75966,0.32353 1.53008,0.87703 2.20361,1.58313 7.03938,3.758 10.10456,4.54449 5.45218,1.39895 12.88822,1.23772 18.1279,-0.39305 l 1.66292,-0.51756 3.00691,3.33157 3.0069,3.33157 -1.90567,0.55251 c -1.04812,0.30388 -2.60417,0.69777 -3.45789,0.87531 -2.13251,0.44347 -7.90629,0.59688 -10.30111,0.2737 z m 31.840719,-24.27837 -3.154839,-2.82769 0.563083,-1.60836 c 2.21514,-6.32718 2.269557,-14.25435 0.141807,-20.65835 -0.79678,-2.39812 -1.781972,-4.63096 -2.864062,-6.49111 -0.679731,-1.16849 -0.570254,-1.09379 1.369655,0.93454 4.305964,4.50222 7.109958,9.82765 8.423794,15.99873 1.050774,4.93546 0.596214,12.96318 -0.938345,16.57166 l -0.386255,0.90827 z"
       id="path887" />
  </g>
</svg>
