<?xml version="1.0" encoding="UTF-8" standalone="no"?>
<svg
   xmlns:dc="http://purl.org/dc/elements/1.1/"
   xmlns:cc="http://creativecommons.org/ns#"
   xmlns:rdf="http://www.w3.org/1999/02/22-rdf-syntax-ns#"
   xmlns:svg="http://www.w3.org/2000/svg"
   xmlns="http://www.w3.org/2000/svg"
   xmlns:sodipodi="http://sodipodi.sourceforge.net/DTD/sodipodi-0.dtd"
   xmlns:inkscape="http://www.inkscape.org/namespaces/inkscape"
   version="1.1"
   id="svg2"
   width="662.81226"
   height="682.52069"
   viewBox="0 0 662.81225 682.52069"
   sodipodi:docname="docs_troubleshooting_ok.svg"
   inkscape:version="1.0.2 (e86c870879, 2021-01-15)"
   inkscape:export-filename="/home/marafed/Desktop/parrot OS/graphics/website/docs_tools.png"
   inkscape:export-xdpi="66"
   inkscape:export-ydpi="66">
  <metadata
     id="metadata8">
    <rdf:RDF>
      <cc:Work
         rdf:about="">
        <dc:format>image/svg+xml</dc:format>
        <dc:type
           rdf:resource="http://purl.org/dc/dcmitype/StillImage" />
        <dc:title></dc:title>
      </cc:Work>
    </rdf:RDF>
  </metadata>
  <defs
     id="defs6" />
  <sodipodi:namedview
     pagecolor="#ffffff"
     bordercolor="#666666"
     borderopacity="1"
     objecttolerance="10"
     gridtolerance="10"
     guidetolerance="10"
     inkscape:pageopacity="0"
     inkscape:pageshadow="2"
     inkscape:window-width="1920"
     inkscape:window-height="1054"
     id="namedview4"
     showgrid="false"
     inkscape:zoom="0.38406375"
     inkscape:cx="56.165392"
     inkscape:cy="252.26081"
     inkscape:window-x="1920"
     inkscape:window-y="0"
     inkscape:window-maximized="1"
     inkscape:current-layer="g898"
     inkscape:document-rotation="0" />
  <g
     inkscape:groupmode="layer"
     inkscape:label="Image"
     id="g10"
     transform="translate(1341.6551,737.02798)">
    <g
       id="g898"
       transform="translate(546.9921,4.703933)">
      <g
         id="g991"
         transform="translate(-1902.0571,-744.35655)">
        <path
           style="opacity:1;fill:none;fill-opacity:1;stroke:#605f6d;stroke-width:39.1;stroke-linecap:butt;stroke-linejoin:bevel;stroke-miterlimit:4;stroke-dasharray:none;stroke-opacity:1"
           d="M 85.443293,344.51748 C 64.441486,155.33935 214.4086,23.081926 340.99909,22.175389"
           id="path967"
           sodipodi:nodetypes="cc" />
        <path
           style="fill:none;fill-opacity:1;stroke:#605f6d;stroke-width:39.1;stroke-linecap:butt;stroke-linejoin:round;stroke-miterlimit:4;stroke-dasharray:none;stroke-opacity:1"
           d="M 594.74372,341.72128 C 613.33173,145.98684 468.63749,21.824427 340.99909,22.175389"
           id="path967-5"
           sodipodi:nodetypes="cc" />
      </g>
      <path
         style="fill:#50b2ff;fill-opacity:1;stroke:none;stroke-width:6.6;stroke-linejoin:round;stroke-miterlimit:4;stroke-dasharray:none;stroke-opacity:1"
         d="m -1741.2411,-420.72751 -0.1475,226.67128 c -28.4484,8.26167 -76.0088,8.93709 -91.8852,0 -34.1233,-19.3027 -53.2464,-61.90984 -55.224,-106.70377 -2.37,-53.67773 23.8171,-109.68437 53.2051,-120.95242 10.168,-4.97324 20.4885,-4.682 37.7542,-5.05545 19.5709,-0.42331 42.2534,2.6199 56.2974,6.04036 z"
         id="path839"
         sodipodi:nodetypes="cccscsc" />
      <path
         style="fill:#005ca6;fill-opacity:1;stroke:none;stroke-width:6.6;stroke-linecap:round;stroke-linejoin:round;stroke-miterlimit:4;stroke-dasharray:none;stroke-opacity:1"
         d="m -1806.9148,-426.59651 -0.072,238.43453 c 11.6163,1.21516 42.3782,1.17268 65.5981,-5.89425 l 0.1475,-226.67128 c -18.1083,-4.33814 -40.8208,-7.16765 -65.6737,-5.869 z"
         id="path939"
         sodipodi:nodetypes="ccccc" />
      <path
         style="fill:none;fill-opacity:1;stroke:#605f6d;stroke-width:39.1;stroke-linecap:butt;stroke-linejoin:bevel;stroke-miterlimit:4;stroke-dasharray:none;stroke-opacity:1"
         d="m -1304.864,-206.54244 c -1.9645,94.3891 -97.8087,88.893 -204.2541,86.49796"
         id="path1013"
         sodipodi:nodetypes="cc" />
      <path
         style="fill:#50b2ff;fill-opacity:1;stroke:none;stroke-width:6.6;stroke-linejoin:round;stroke-miterlimit:4;stroke-dasharray:none;stroke-opacity:1"
         d="m -1373.2411,-420.72751 0.1476,226.67128 c 28.4483,8.26167 76.0087,8.93709 91.8852,0 34.1233,-19.3027 53.2463,-61.90984 55.224,-106.70377 2.3699,-53.67773 -23.8171,-109.68437 -53.2052,-120.95242 -10.168,-4.97324 -20.4884,-4.682 -37.7541,-5.05545 -19.571,-0.42331 -42.2535,2.6199 -56.2975,6.04036 z"
         id="path839-6"
         sodipodi:nodetypes="cccscsc" />
      <path
         style="fill:#005ca6;fill-opacity:1;stroke:none;stroke-width:6.6;stroke-linecap:round;stroke-linejoin:round;stroke-miterlimit:4;stroke-dasharray:none;stroke-opacity:1"
         d="m -1307.5674,-426.59651 0.072,238.43453 c -11.6163,1.21516 -42.3781,1.17268 -65.598,-5.89425 l -0.1476,-226.67128 c 18.1084,-4.33814 40.8209,-7.16765 65.6737,-5.869 z"
         id="path939-7"
         sodipodi:nodetypes="ccccc" />
      <path
         style="fill:#0062af;fill-opacity:1;stroke:none;stroke-width:49.9655;stroke-linecap:butt;stroke-linejoin:bevel;stroke-miterlimit:4;stroke-dasharray:none;stroke-opacity:1"
         d="m -1469.1181,-178.82565 v 117.12937 c -51.9299,0.26656 -151.9594,5.45561 -155.7964,0 -16.0311,-8.21098 -27.0171,-31.88358 -27.3131,-57.05197 -0.3003,-25.53446 6.8919,-52.78431 27.3131,-59.15999 4.8053,-3.77977 103.8643,-0.61161 155.7964,-0.91741 z"
         id="path1015"
         sodipodi:nodetypes="cccscc" />
      <path
         style="fill:#003259;fill-opacity:1;stroke:none;stroke-width:39.1;stroke-linecap:butt;stroke-linejoin:bevel;stroke-miterlimit:4;stroke-dasharray:none;stroke-opacity:1"
         d="m -1468.5621,-113.81243 h -183.7207 c 0.3434,-28.25445 1.8179,-55.62137 27.3683,-64.09581 14.7739,-6.06167 107.2906,-2.16924 155.7964,-0.91741 z"
         id="path1017"
         sodipodi:nodetypes="ccccc" />
    </g>
  </g>
</svg>
