<?xml version="1.0" encoding="UTF-8" standalone="no"?>
<svg
   xmlns:dc="http://purl.org/dc/elements/1.1/"
   xmlns:cc="http://creativecommons.org/ns#"
   xmlns:rdf="http://www.w3.org/1999/02/22-rdf-syntax-ns#"
   xmlns:svg="http://www.w3.org/2000/svg"
   xmlns="http://www.w3.org/2000/svg"
   xmlns:sodipodi="http://sodipodi.sourceforge.net/DTD/sodipodi-0.dtd"
   xmlns:inkscape="http://www.inkscape.org/namespaces/inkscape"
   version="1.1"
   id="svg2"
   width="510.20734"
   height="513.82495"
   viewBox="0 0 510.20734 513.82495"
   sodipodi:docname="docs_usb_ok.svg"
   inkscape:version="1.0.2 (e86c870879, 2021-01-15)">
  <metadata
     id="metadata8">
    <rdf:RDF>
      <cc:Work
         rdf:about="">
        <dc:format>image/svg+xml</dc:format>
        <dc:type
           rdf:resource="http://purl.org/dc/dcmitype/StillImage" />
        <dc:title></dc:title>
      </cc:Work>
    </rdf:RDF>
  </metadata>
  <defs
     id="defs6" />
  <sodipodi:namedview
     pagecolor="#ffffff"
     bordercolor="#666666"
     borderopacity="1"
     objecttolerance="10"
     gridtolerance="10"
     guidetolerance="10"
     inkscape:pageopacity="0"
     inkscape:pageshadow="2"
     inkscape:window-width="1920"
     inkscape:window-height="1001"
     id="namedview4"
     showgrid="false"
     inkscape:zoom="0.55966928"
     inkscape:cx="217.86349"
     inkscape:cy="118.18443"
     inkscape:window-x="0"
     inkscape:window-y="27"
     inkscape:window-maximized="1"
     inkscape:current-layer="g10" />
  <g
     inkscape:groupmode="layer"
     inkscape:label="Image"
     id="g10"
     transform="translate(531.20526,41.605619)">
    <path
       style="fill:#dfe2ec;fill-opacity:1"
       d="m -229.82582,24.06065 3.46298,3.60247 33.03702,-32.97093 c 23.31828,-23.27164 34.20113,-33.45527 36.99423,-34.61735 6.19189,-2.57618 14.46617,-2.15721 20.32011,1.0289 3.43901,1.87175 21.13818,18.94751 58.92545,56.85 50.18754,50.34054 54.10061,54.5125 55.29013,58.94809 1.4953,5.57579 0.83874,13.17839 -1.54782,17.92282 -0.91403,1.81707 -16.31751,18.01728 -34.22997,36.00046 l -32.56809,32.69671 C -164.2271,91.24547 -179.92987,74.96214 -229.82582,24.06065 Z"
       id="path851"
       sodipodi:nodetypes="ccssssssscc" />
    <path
       style="fill:#3ab4ff;fill-opacity:1"
       d="m -386.99614,469.36585 c -7.20464,-1.93757 -15.71006,-6.5773 -21.66781,-11.81985 l -4.88156,-4.29555 -3.94513,2.85783 c -4.50093,3.26046 -12.2796,5.83812 -17.61783,5.83812 -5.27326,0 -12.91853,-2.51079 -18.10414,-5.94559 -2.48251,-1.64434 -17.82531,-16.68383 -34.09512,-33.42108 -32.95351,-33.90028 -33.81111,-35.11648 -33.79097,-47.92084 0.01,-6.28322 3.05646,-14.91822 6.67358,-18.91509 1.41572,-1.56435 1.16641,-2.15751 -2.94356,-7.00326 -15.05697,-17.75251 -17.96009,-39.62357 -8.04699,-60.62318 2.33573,-4.94795 19.3232,-22.34971 133.24212,-136.49163 75.50286,-75.650657 132.14519,-131.642187 134.31188,-132.768687 5.69245,-2.95959 11.65064,-3.43021 17.88479,-1.41265 5.06507,1.63921 8.7596,5.12086 65.38536,61.61775 l 60.01695,59.880357 c 19.668456,17.15561 24.459986,24.10386 30.211446,30.34346 2.24676,2.43745 4.89143,5.94568 5.87705,7.79608 2.41886,4.54114 2.48738,15.14138 0.12847,19.87241 -0.98179,1.96907 -59.328736,61.02793 -132.999996,134.62278 -141.17604,141.0296 -133.82668,134.1755 -147.88183,137.91641 -6.82091,1.81545 -20.76979,1.75123 -27.75671,-0.12779 z"
       id="path849"
       sodipodi:nodetypes="sscssssssssssssccsssss" />
    <path
       style="fill:#0099f7;fill-opacity:1"
       d="m -386.99614,469.36585 c -7.3631,-2.10795 -14.0903,-5.87751 -21.20235,-11.88065 l -5.30407,-4.47706 -2.30609,2.16645 c -3.78126,3.55232 -11.86294,6.08058 -19.43677,6.08058 -10.2297,0 -16.06101,-3.32869 -29.5169,-16.84915 l -10.8679,-10.92004 5.8679,1.99173 c 7.64324,2.59434 16.32026,2.01796 23.62327,-1.5692 4.24625,-2.0857 19.1477,-16.52747 78.27953,-75.86472 79.04557,-79.32017 77.7232,-77.82075 83.15503,-94.28862 2.29678,-6.96321 2.64235,-9.68478 2.66649,-21 0.0245,-11.47987 -0.28523,-13.93546 -2.64862,-21 -3.9627,-11.84513 -5.71886,-14.17703 -13.24767,-17.59075 -9.2751,-4.20553 -17.51555,-5.87757 -29.05017,-5.89447 -15.42066,-0.0226 -27.54486,3.65732 -40.40996,12.26514 -2.475,1.65598 -36.12707,34.55794 -74.78238,73.11548 l -70.28239,70.1046 -3.45234,-4 c -9.45218,-10.95161 -13.4148,-20.44852 -14.18661,-34 -0.37639,-6.60869 -0.0629,-10.72706 1.17976,-15.5 3.9277,-15.0856 -3.01269,-7.59817 137.94644,-148.81925 140.77782,-114.382161 235.08981,-9.27073 315.04053,35.81925 -0.0267,4.68315 -0.6366,7.61806 -2.18219,10.5 -2.66576,4.97063 -260.00669,262.1999 -266.01229,265.89686 -2.32731,1.43266 -7.58165,3.72945 -11.67632,5.10399 -9.11842,3.06095 -21.7683,3.30825 -31.19393,0.60983 z"
       id="path847"
       sodipodi:nodetypes="sscssscsssssssssscsscccssss" />
    <path
       style="fill:#c0c7da;fill-opacity:1"
       d="m -258.60736,17.71226 c 5.25987,-2.75716 14.48349,-2.90595 20,-0.32264 2.69209,1.26068 23.62401,21.43944 64.01639,61.71302 l 60.0164,59.83986 13.4836,-13.51871 c 17.35724,-17.09233 26.17416,-27.51419 44.57881,-44.56697 7.9872,-7.91167 11.4048,-14.3666 11.4048,-21.54055 0,-2.88121 -0.47294,-6.50535 -1.05098,-8.05366 -1.57772,-4.22601 20.80724,18.20622 23.13604,23.1849 2.59877,5.55584 2.51438,14.3803 -0.18926,19.78984 -1.33544,2.672 -13.94614,16.09746 -34.51721,36.74731 l -32.41301,32.53716 3.60232,3.46284 c 6.38958,6.14218 8.93716,11.57319 8.89511,18.96284 -0.0266,4.67867 -0.63728,7.62081 -2.17933,10.49999 C -234.29542,130.6434 -254.26742,97.23516 -258.60736,17.71226 Z"
       id="path845"
       sodipodi:nodetypes="csscccssssscsscc" />
    <path
       style="fill:#ffb036;fill-opacity:1"
       d="m -344.03551,301.58305 c -10.01197,-3.28144 -16.12279,-8.5102 -21.0435,-18.00598 -3.67815,-7.09795 -3.85049,-19.5848 -0.37691,-27.30923 2.68836,-5.9783 11.26192,-14.6179 16.80412,-16.93358 13.28235,-5.54972 29.1503,-2.05627 38.40231,8.45457 8.34849,9.48439 10.46248,24.33873 5.0779,35.6808 -3.27416,6.89669 -10.14782,13.72682 -16.75605,16.64996 -5.78111,2.55725 -16.58793,3.27262 -22.10787,1.46346 z"
       id="path843"
       sodipodi:nodetypes="ssssssss"
       inkscape:transform-center-x="-0.29822122"
       inkscape:transform-center-y="-2.265502" />
    <path
       style="fill:#004e8c;fill-opacity:1"
       d="m -384.11223,469.54967 c -8.50409,-1.84159 -17.29067,-6.26013 -23.5,-11.81752 l -5,-4.47504 70.11626,-70.32042 c 38.56394,-38.67623 71.46486,-72.34542 73.11315,-74.82042 4.2681,-6.40878 6.79047,-11.63284 9.44946,-19.57074 1.99896,-5.96749 2.31556,-8.87244 2.28102,-20.92926 -0.0357,-12.47328 -0.33284,-14.87241 -2.72441,-22 -1.47637,-4.4 -4.38332,-10.89898 -6.45989,-14.44218 -4.83538,-8.25047 -16.08294,-19.49803 -24.33341,-24.33341 -23.38283,-13.70405 -54.14315,-12.77111 -76.62963,2.32411 -2.6469,1.77688 -36.4488,34.78036 -75.11532,73.34108 -59.8384,59.67466 -70.48098,69.87815 -71.5,68.55006 -0.65848,-0.85819 -2.83047,-3.55819 -4.82665,-6 -7.58555,-9.27896 -10.93198,-19.26019 -10.94946,-32.65836 -0.0142,-10.84807 2.61687,-19.75571 8.3835,-28.38334 2.04059,-3.053 59.99241,-61.69531 133.40166,-134.99115 139.90648,-139.6903283 131.5706,-131.943318 141.90974,-131.884848 8.8439,0.05 8.92686,0.1247 89.15946,80.27797 51.21365,51.163018 76.924255,77.535938 78.250005,80.265788 2.82403,5.81495 2.62686,13.7363 -0.49751,19.98794 -1.9288,3.85938 -30.880855,33.31206 -131.750005,134.02814 -121.25874,121.07474 -129.72724,129.31249 -136.5207,132.80071 -12.10697,6.21654 -23.52771,7.80752 -36.25727,5.05089 z"
       id="path841"
       sodipodi:nodetypes="sscsssssssssssssssssssss" />
    <path
       style="fill:#605f6d;fill-opacity:1"
       d="m -119.40343,97.128915 c -10.71755,-10.71755 -12.79245,-13.28018 -12.79245,-15.79941 0,-2.52679 2.04968,-5.03502 12.83593,-15.707548 9.45163,-9.35196 13.48501,-12.70059 15.29771,-12.70059 1.83246,0 5.836679,3.40831 15.664059,13.33292 7.50753,7.581808 13.2023,14.142198 13.2023,15.209088 0,2.92913 -26.013699,28.457985 -28.998459,28.457985 -1.76291,0 -5.87714,-3.4605 -15.20909,-12.792445 z m -39.79245,-40.898898 c -2.38232,-0.84724 -25.06648,-23.56295 -26.07858,-26.11485 -1.40037,-3.53089 0.68033,-6.4857 13.33972,-18.9438 9.29911,-9.1512604 11.97613,-11.25000041 14.34974,-11.25000041 2.40637,0 5.15088,2.23787001 15.65355,12.76391041 10.43114,10.45434 12.73557,13.28677 12.73557,15.65354 0,2.33752 -2.14955,5.07393 -11.25,14.32142 -9.4001,9.55197 -15.41691,14.58618 -16.95034,14.18218 -0.16481,-0.0434 -0.97466,-0.319 -1.79966,-0.6124 z"
       id="path839"
       sodipodi:nodetypes="sssssssssssssssss" />
    <path
       style="fill:#003259;fill-opacity:1"
       d="m -381.11224,471.6987 c -7.85461,-1.09505 -20.55378,-7.09471 -27,-12.75602 l -4.5,-3.95207 3.44617,-3.58883 c 3.31985,-3.45728 3.70616,-3.58882 10.5399,-3.58882 8.64784,0 16.89375,-2.00376 25.51393,-6.19989 5.96489,-2.90359 17.18568,-13.83067 136.29986,-132.73209 71.38992,-71.26241 130.65355,-130.93251 131.69696,-132.60023 3.9188,-6.26358 4.44646,-14.07701 1.48352,-21.96779 -0.41304,-1.1 4.30817,2.95 10.49159,9 12.54026,12.26969 16.00208,17.84162 16.0183,25.78212 0.005,2.63016 -0.68062,6.45516 -1.52442,8.5 -2.07479,5.02791 -257.31552,260.68718 -265.92428,266.36034 -10.08869,6.64841 -23.70247,9.53323 -36.54153,7.74328 z"
       id="path837" />
  </g>
</svg>
