<?xml version="1.0" encoding="UTF-8" standalone="no"?>
<svg
   xmlns:dc="http://purl.org/dc/elements/1.1/"
   xmlns:cc="http://creativecommons.org/ns#"
   xmlns:rdf="http://www.w3.org/1999/02/22-rdf-syntax-ns#"
   xmlns:svg="http://www.w3.org/2000/svg"
   xmlns="http://www.w3.org/2000/svg"
   xmlns:sodipodi="http://sodipodi.sourceforge.net/DTD/sodipodi-0.dtd"
   xmlns:inkscape="http://www.inkscape.org/namespaces/inkscape"
   version="1.1"
   id="svg2"
   width="457.97348"
   height="414.0311"
   viewBox="0 0 457.97348 414.03109"
   sodipodi:docname="docs_virtualization_ok.svg"
   inkscape:version="1.0.2 (e86c870879, 2021-01-15)">
  <metadata
     id="metadata8">
    <rdf:RDF>
      <cc:Work
         rdf:about="">
        <dc:format>image/svg+xml</dc:format>
        <dc:type
           rdf:resource="http://purl.org/dc/dcmitype/StillImage" />
        <dc:title />
      </cc:Work>
    </rdf:RDF>
  </metadata>
  <defs
     id="defs6" />
  <sodipodi:namedview
     pagecolor="#ffffff"
     bordercolor="#666666"
     borderopacity="1"
     objecttolerance="10"
     gridtolerance="10"
     guidetolerance="10"
     inkscape:pageopacity="0"
     inkscape:pageshadow="2"
     inkscape:window-width="1920"
     inkscape:window-height="1001"
     id="namedview4"
     showgrid="false"
     inkscape:zoom="1.2526384"
     inkscape:cx="146.35434"
     inkscape:cy="126.00038"
     inkscape:window-x="0"
     inkscape:window-y="27"
     inkscape:window-maximized="1"
     inkscape:current-layer="g10"
     inkscape:document-rotation="0" />
  <g
     inkscape:groupmode="layer"
     inkscape:label="Image"
     id="g10"
     transform="translate(-31.376159,-54.136607)">
    <path
       style="fill:#53515e;fill-opacity:1;stroke-width:1.02448"
       d="m 146.63749,465.99102 c -11.62847,-6.04128 -11.54977,-23.82344 0.13009,-29.39074 3.61133,-1.72138 6.84315,-1.95486 27.33957,-1.97519 l 23.24411,-0.0231 8.01178,-16.79296 8.01178,-16.79295 h -64.84593 c -61.303933,0 -65.267823,-0.11325 -72.569843,-2.07334 -20.75268,-5.5707 -37.04528,-22.05343 -42.54016,-43.03663 -2.01938,-7.71132 -2.05559,-9.98294 -2.04107,-128.04628 0.0164,-133.406904 -0.28838,-126.99458 6.69968,-140.951937 7.11081,-14.202533 18.79173,-24.543011 33.78554,-29.908507 l 8,-2.862779 H 259.36304 c 147.52913,0 180.47961,0.252975 185,1.420338 20.902,5.39778 38.64094,23.924733 43.46256,45.393295 1.29717,5.77572 1.50994,23.44686 1.52266,126.45822 0.0143,116.0414 -0.0466,119.99624 -1.97056,127.89162 -2.64475,10.85337 -6.92206,18.45728 -15.44944,27.46494 -8.05946,8.5134 -15.86144,13.14449 -27.33166,16.22346 -7.08339,1.90141 -11.58924,2.0276 -72.39941,2.0276 h -64.84593 l 8.01178,16.79295 8.01178,16.79296 h 23.17838 c 21.39928,0 23.50676,0.16684 27.45641,2.17358 11.70215,5.94568 11.67108,23.82661 -0.0511,29.41409 -3.91189,1.86464 -9.00349,1.95314 -113.59546,1.97436 -109.10646,0.0221 -109.51519,0.0144 -113.72555,-2.17305 z M 442.86304,364.63591 c 5.31588,-3.01614 9.93084,-8.21709 12.42146,-13.99864 2.00719,-4.65935 2.03491,-6.3226 2.05658,-123.37958 l 0.022,-118.65655 -2.57775,-5.42925 c -2.7838,-5.863207 -6.3311,-9.502534 -12.80578,-13.137978 l -4.11647,-2.311341 h -177.5 -177.500003 l -4.11647,2.311341 c -6.47468,3.635444 -10.02198,7.274771 -12.80578,13.137978 l -2.57775,5.42925 0.022,118.65655 c 0.0217,117.05698 0.0494,118.72023 2.05658,123.37958 3.2964,7.65204 9.46753,13.42303 16.91499,15.81818 1.37856,0.44337 82.156473,0.72598 179.506473,0.62805 l 177,-0.17806 z"
       id="path837" />
    <path
       style="opacity:1;fill:#fe4d00;fill-opacity:1;stroke-width:6.97752;stroke-linecap:round;stroke-linejoin:round"
       d="m 260.67195,124.80912 -97.20278,51.85865 97.36747,52.52734 96.86586,-52.50277 z"
       id="path850" />
    <path
       style="opacity:1;fill:#ffb036;fill-opacity:1;stroke-width:6.97752;stroke-linecap:round;stroke-linejoin:round"
       d="m 260.83664,229.19511 -0.69235,104.33253 97.46527,-52.07547 0.093,-104.75983 z"
       id="path852" />
    <path
       style="opacity:1;fill:#ff6a29;fill-opacity:1;stroke-width:6.97752;stroke-linecap:round;stroke-linejoin:round"
       d="m 163.46917,176.66777 v 104.16845 l 96.67512,52.69142 0.69235,-104.33253 z"
       id="path854" />
    <path
       style="opacity:1;fill:#003259;fill-opacity:1;stroke-width:7.00131;stroke-linecap:round;stroke-linejoin:round"
       d="m 260.74785,81.938538 -0.0759,42.870582 -97.20278,51.85865 0.16252,70.76541 -100.752062,43.64568 0.380793,-184.4624 C 64.629225,91.226207 73.271889,83.756379 86.949089,81.768602 Z"
       id="path856"
       sodipodi:nodetypes="cccccccc" />
    <path
       style="fill:#004e8c;fill-opacity:1;stroke-width:7.00131;stroke-linecap:round;stroke-linejoin:round"
       d="m 260.59605,81.938528 0.0759,42.870592 97.03061,51.88322 -0.26885,71.70086 100.90819,42.70906 0.68999,-186.47291 c 0.37222,-14.396946 -5.6798,-22.369641 -19.35974,-22.714405 z"
       id="path856-3"
       sodipodi:nodetypes="cccccccc" />
    <path
       style="opacity:1;fill:#0067b8;fill-opacity:1;stroke-width:7.00131;stroke-linecap:round;stroke-linejoin:round"
       d="m 62.879628,291.07886 100.752062,-43.64568 -0.16252,33.40304 96.67512,52.69142 97.46527,-52.07547 -0.17585,-33.05897 100.90819,42.70906 v 64.82151 c -0.43179,11.04747 -5.17122,18.75434 -19.60867,18.9403 L 80.24467,375.07919 C 68.031058,374.32631 62.764399,367.75738 62.879784,356.68257 Z"
       id="path878"
       sodipodi:nodetypes="cccccccccccc" />
  </g>
</svg>
