<?xml version="1.0" encoding="UTF-8" standalone="no"?>
<!-- Created with Inkscape (http://www.inkscape.org/) -->

<svg
   xmlns:dc="http://purl.org/dc/elements/1.1/"
   xmlns:cc="http://creativecommons.org/ns#"
   xmlns:rdf="http://www.w3.org/1999/02/22-rdf-syntax-ns#"
   xmlns:svg="http://www.w3.org/2000/svg"
   xmlns="http://www.w3.org/2000/svg"
   xmlns:sodipodi="http://sodipodi.sourceforge.net/DTD/sodipodi-0.dtd"
   xmlns:inkscape="http://www.inkscape.org/namespaces/inkscape"
   width="181.31606mm"
   height="181.31599mm"
   viewBox="0 0 181.31606 181.31599"
   version="1.1"
   id="svg4631"
   inkscape:version="0.92.3 (2405546, 2018-03-11)"
   sodipodi:docname="parrot-logo.svg">
  <defs
     id="defs4625" />
  <sodipodi:namedview
     id="base"
     pagecolor="#ffffff"
     bordercolor="#666666"
     borderopacity="1.0"
     inkscape:pageopacity="0.0"
     inkscape:pageshadow="2"
     inkscape:zoom="0.70910507"
     inkscape:cx="540.40198"
     inkscape:cy="273.53034"
     inkscape:document-units="mm"
     inkscape:current-layer="layer1"
     showgrid="false"
     inkscape:window-width="1366"
     inkscape:window-height="690"
     inkscape:window-x="0"
     inkscape:window-y="27"
     inkscape:window-maximized="1" />
  <metadata
     id="metadata4628">
    <rdf:RDF>
      <cc:Work
         rdf:about="">
        <dc:format>image/svg+xml</dc:format>
        <dc:type
           rdf:resource="http://purl.org/dc/dcmitype/StillImage" />
        <dc:title></dc:title>
      </cc:Work>
    </rdf:RDF>
  </metadata>
  <g
     inkscape:label="Livello 1"
     inkscape:groupmode="layer"
     id="layer1"
     transform="translate(-14.397736,-20.92775)">
    <path
       style="opacity:1;fill:#15e4f1;fill-opacity:1;stroke:none;stroke-width:0.30797049;stroke-opacity:1"
       id="path7201"
       sodipodi:type="arc"
       sodipodi:cx="105.05576"
       sodipodi:cy="111.86932"
       sodipodi:rx="90.658028"
       sodipodi:ry="90.657997"
       sodipodi:start="0"
       sodipodi:end="6.2684246"
       d="M 195.71379,111.86932 A 90.658028,90.657997 0 0 1 105.39031,202.5267 90.658028,90.657997 0 0 1 14.400205,112.53841 90.658028,90.657997 0 0 1 104.05215,21.216882 90.658028,90.657997 0 0 1 195.70391,110.5312"
       sodipodi:open="true" />
    <path
       style="fill:#000000;stroke:none;stroke-width:0.57879484;stroke-opacity:1"
       d="m 230.52556,53.171737 c -0.22745,0.0042 -0.50419,0.02804 -0.79427,0.05684 -0.8249,-0.140634 -2.42575,0.05998 -5.13819,0.624253 -2.83529,0.589833 -5.80566,1.199448 -6.60115,1.354955 -1.67177,0.326837 -1.70665,0.546684 -1.74821,11.116117 -0.014,3.56965 -0.0592,7.347111 -0.10025,8.394321 -0.041,1.04722 -0.0533,4.79885 0.14722,4.83635 0.095,0.0177 1.48668,-2.027231 2.29319,-3.122741 1.19116,-1.67794 1.51715,-2.11069 1.6689,-2.33301 0.34372,-0.44596 -0.31256,0.45422 1.6826,-2.224869 1.46319,-1.964791 2.80648,-3.641941 3.49488,-4.386811 1.82924,0.8765 3.25616,1.88587 3.45006,2.434871 0.16189,0.45833 3.44484,3.108589 5.30393,4.693889 1.90754,1.626611 3.88294,3.945881 4.53409,5.323711 0.63461,1.34283 3.25008,6.37119 5.81205,11.17451 l 4.65811,8.73383 3.47265,0.706417 c 1.91008,0.38874 4.78456,1.13983 6.38773,1.66915 2.82433,0.9325 2.93492,1.05101 3.54965,3.81217 0.34894,1.56732 0.75234,5.53089 0.89658,8.80773 0.41554,9.44031 1.07709,19.14539 1.63298,23.94944 0.15392,1.33018 0.43566,4.44322 0.6258,6.91741 0.19013,2.4742 0.47977,5.58837 0.64337,6.92051 0.1636,1.33213 0.48266,4.45233 0.70952,6.93394 0.22686,2.48161 0.57609,6.00656 0.77566,7.83312 0.19958,1.82654 0.37173,4.20552 0.38293,5.28649 0.0112,1.08099 0.1587,1.87382 0.32763,1.76166 0.10857,-0.0721 0.48213,-2.18137 0.96944,-5.27049 0.11759,1.3767 0.20517,2.74804 0.21291,3.4954 0.0112,1.08099 0.15871,1.8738 0.32763,1.76165 0.31528,-0.20929 2.78489,-16.90752 4.17131,-28.205 0.27823,-2.26719 0.62657,-4.32497 0.91984,-5.55625 0.37506,0.59715 0.79604,1.37387 1.20768,2.2624 3.04224,6.56659 4.2392,9.20017 5.42654,11.9388 0.63301,1.46005 1.24939,2.58963 1.36943,2.50993 0.0703,-0.0467 0.17236,-0.95026 0.27388,-2.22984 0.58291,1.30662 1.12418,2.29037 1.23559,2.2164 0.12003,-0.0797 0.33449,-2.50995 0.47645,-5.4007 0.23497,-4.78447 0.35567,-8.07609 0.93535,-25.49095 0.14106,-4.23756 0.21076,-6.00565 0.38188,-6.77892 1.69014,1.23602 5.29804,4.15581 9.3307,7.57267 5.40385,4.57869 9.93524,8.25169 10.06967,8.16229 0.0967,-0.0643 -0.0903,-0.51429 -0.76481,-1.71411 1.3514,1.08221 2.21822,1.7383 2.2748,1.70067 0.22665,-0.15073 -0.92614,-2.14379 -6.92775,-11.97498 -1.91074,-3.12998 -5.62674,-9.27995 -11.30628,-18.71255 -0.58515,-0.97182 -2.99198,-4.946837 -5.34851,-8.833047 -2.35653,-3.88622 -5.5367,-9.1785 -7.06675,-11.76104 -1.53006,-2.58253 -3.01162,-5.008681 -3.29231,-5.390891 -0.28069,-0.38218 -2.06671,-3.341359 -3.96926,-6.576339 -1.90253,-3.23499 -3.86913,-6.220402 -4.36976,-6.634221 -0.90007,-0.744022 -9.37315,-3.346384 -19.15903,-5.883881 -5.04815,-1.308984 -13.01689,-4.782407 -14.12575,-6.157246 -0.18376,-0.22784 -0.60076,-0.337214 -1.32033,-0.324011 z"
       id="path25"
       inkscape:connector-curvature="0"
       sodipodi:nodetypes="ccscccccccccccccccssscsscsccccsccscccccccccccsccccccccc" />
    <path
       style="fill:#000000;fill-opacity:1;stroke:#000000;stroke-width:0.26458332px;stroke-linecap:butt;stroke-linejoin:miter;stroke-opacity:1"
       d="m 58.799359,59.337684 0.373123,24.999233 10.074319,-13.805547 11.566806,8.954949 14.551795,26.864841 16.790528,5.22373 1.11937,70.1471 8.2087,-35.8198 10.07432,19.77551 0.74625,-42.536 20.14863,11.93993 L 107.30533,69.038877 74.843643,57.098945 Z"
       id="path8217"
       inkscape:connector-curvature="0"
       sodipodi:nodetypes="cccccccccccccc" />
  </g>
</svg>
