<?xml version="1.0" encoding="UTF-8" standalone="no"?>
<svg
   xmlns:dc="http://purl.org/dc/elements/1.1/"
   xmlns:cc="http://creativecommons.org/ns#"
   xmlns:rdf="http://www.w3.org/1999/02/22-rdf-syntax-ns#"
   xmlns:svg="http://www.w3.org/2000/svg"
   xmlns="http://www.w3.org/2000/svg"
   xmlns:sodipodi="http://sodipodi.sourceforge.net/DTD/sodipodi-0.dtd"
   xmlns:inkscape="http://www.inkscape.org/namespaces/inkscape"
   width="500mm"
   height="500mm"
   viewBox="0 0 500 500"
   version="1.1"
   id="svg8"
   sodipodi:docname="Parrot_Logo_NuConcept.svg"
   inkscape:version="1.0.2 (e86c870879, 2021-01-15)">
  <title
     id="title917">Parrot Logo NuConcept</title>
  <defs
     id="defs2" />
  <sodipodi:namedview
     id="base"
     pagecolor="#ffffff"
     bordercolor="#666666"
     borderopacity="1.0"
     inkscape:pageopacity="0.0"
     inkscape:pageshadow="2"
     inkscape:zoom="0.35"
     inkscape:cx="682.87348"
     inkscape:cy="990.29363"
     inkscape:document-units="mm"
     inkscape:current-layer="layer1"
     inkscape:document-rotation="0"
     showgrid="false"
     inkscape:window-width="1920"
     inkscape:window-height="1028"
     inkscape:window-x="0"
     inkscape:window-y="25"
     inkscape:window-maximized="1"
     showguides="true"
     inkscape:guide-bbox="true">
    <sodipodi:guide
       position="183.37181,355.89598"
       orientation="1,0"
       id="guide10" />
    <sodipodi:guide
       position="304.26598,108.73972"
       orientation="0,-1"
       id="guide12" />
    <sodipodi:guide
       position="332.99818,227.69018"
       orientation="1,0"
       id="guide14" />
    <sodipodi:guide
       position="224.2374,396.13968"
       orientation="0,-1"
       id="guide16" />
  </sodipodi:namedview>
  <metadata
     id="metadata5">
    <rdf:RDF>
      <cc:Work
         rdf:about="">
        <dc:format>image/svg+xml</dc:format>
        <dc:type
           rdf:resource="http://purl.org/dc/dcmitype/StillImage" />
        <dc:title>Parrot Logo NuConcept</dc:title>
        <dc:date>12-01-2021</dc:date>
        <dc:creator>
          <cc:Agent>
            <dc:title>Manuel &quot;Serverket&quot; Hernandez</dc:title>
          </cc:Agent>
        </dc:creator>
        <dc:publisher>
          <cc:Agent>
            <dc:title>Manuel &quot;Serverket&quot; Hernandez</dc:title>
          </cc:Agent>
        </dc:publisher>
        <dc:subject>
          <rdf:Bag>
            <rdf:li>logo</rdf:li>
          </rdf:Bag>
        </dc:subject>
        <cc:license
           rdf:resource="http://creativecommons.org/licenses/by/4.0/" />
        <dc:rights>
          <cc:Agent>
            <dc:title>The Parrot Project</dc:title>
          </cc:Agent>
        </dc:rights>
      </cc:Work>
      <cc:License
         rdf:about="http://creativecommons.org/licenses/by/4.0/">
        <cc:permits
           rdf:resource="http://creativecommons.org/ns#Reproduction" />
        <cc:permits
           rdf:resource="http://creativecommons.org/ns#Distribution" />
        <cc:requires
           rdf:resource="http://creativecommons.org/ns#Notice" />
        <cc:requires
           rdf:resource="http://creativecommons.org/ns#Attribution" />
        <cc:permits
           rdf:resource="http://creativecommons.org/ns#DerivativeWorks" />
      </cc:License>
    </rdf:RDF>
  </metadata>
  <g
     inkscape:label="Layer 1"
     inkscape:groupmode="layer"
     id="layer1">
    <circle
       style="fill:#55ddff;fill-opacity:1;stroke:none;stroke-width:0.922905"
       id="path915"
       cx="250"
       cy="250"
       r="250" />
    <path
       style="fill:#1a1a1a;stroke-width:0.852547"
       d="m 305.58704,389.76618 c 2.68741,-5.09713 5.24118,-25.96731 5.24118,-42.83288 0,-10.81587 0.0159,-10.90542 2.23564,-12.35969 3.04044,-2.70939 1.59716,-7.82358 1.63044,-11.60559 0.0753,-8.57125 -0.40794,-10.2164 0.65754,-10.62526 0.69453,-0.26649 3.97956,0.88353 7.30005,2.5557 8.07419,4.06609 8.63754,4.00029 8.63735,-1.00925 -1.8e-4,-4.43326 -2.36342,-19.73303 -5.08305,-32.90768 -0.95333,-4.61832 -1.54841,-8.69612 -1.32242,-9.06173 0.22563,-0.36568 2.14334,-0.4696 4.2608,-0.23107 3.43008,0.38662 3.84999,0.24735 3.84999,-1.27691 0,-5.27266 -14.07461,-41.34262 -23.36108,-59.86909 -7.87393,-15.70851 -11.68882,-21.92789 -20.96907,-34.1865 -4.10686,-5.42471 -9.2959,-13.09764 -11.53123,-17.05088 -12.79676,-22.63143 -29.15882,-42.85941 -40.70438,-50.32162 -10.87219,-7.02705 -19.1718,-6.84938 -31.6239,0.67707 -7.36746,4.45312 -23.28469,13.16173 -21.70021,31.37298 l 0.26712,3.07024 2.82042,-2.08857 c 3.48552,-2.58105 7.37037,-3.37143 11.18875,-2.27632 3.69753,1.06042 7.73088,4.8853 7.73088,7.33129 0,1.03424 -2.10058,9.69045 -4.66794,19.23603 -7.72978,28.74 -9.20409,36.4106 -9.2349,48.04746 -0.0792,30.02018 12.6324,52.24271 43.67213,76.34723 4.88496,3.7935 16.77807,12.11043 26.42904,18.48201 20.53366,13.55642 31.61439,21.4411 31.61439,22.49591 0,1.48554 -2.10204,0.6711 -12.48555,-4.8373 -5.79597,-3.07475 -10.96587,-5.32604 -11.48873,-5.00289 -1.37736,0.85123 -0.32982,7.07211 2.32908,13.83141 3.04415,7.73862 16.2051,34.04813 21.2162,42.41224 4.27975,7.14357 8.52619,13.17568 11.22894,13.17568 0.59169,0 1.42978,-0.67143 1.86244,-1.49202 z m -52.73229,-78.47024 c 0,-2.02237 -11.83065,-13.81831 -17.00135,-13.81831 -3.3264,0 -5.98347,3.20962 -6.96874,5.80117 -1.27446,3.35202 0.72331,4.56941 10.96717,6.68316 9.99125,2.06156 13.00292,2.37056 13.00292,1.33398 z"
       id="path30"
       sodipodi:nodetypes="ssccssssssssssssscssssssssssssssssssss" />
  </g>
</svg>
